<?xml version="1.0" standalone="no"?>
<!DOCTYPE svg PUBLIC "-//W3C//DTD SVG 20010904//EN"
 "http://www.w3.org/TR/2001/REC-SVG-20010904/DTD/svg10.dtd">
<svg version="1.0" xmlns="http://www.w3.org/2000/svg"
 width="25px" height="25px" viewBox="0 0 512.000000 512.000000"
 preserveAspectRatio="xMidYMid meet">

<g transform="translate(0.000000,512.000000) scale(0.100000,-0.100000)"
fill="#d6d6d6" stroke="none">
<path d="M2510 4901 c-74 -24 -119 -63 -145 -123 -22 -55 -22 -541 0 -596 64
-152 273 -172 370 -34 l30 44 3 266 c4 286 0 320 -45 372 -48 57 -151 91 -213
71z"/>
<path d="M965 4256 c-59 -27 -77 -46 -104 -106 -26 -57 -26 -113 0 -170 26
-58 336 -372 395 -400 134 -65 291 23 302 169 7 101 -4 118 -191 309 -226 227
-281 255 -402 198z"/>
<path d="M3974 4255 c-55 -28 -369 -337 -396 -390 -44 -86 -28 -176 42 -246
38 -38 57 -49 101 -58 62 -12 111 -4 161 27 61 38 355 344 377 392 27 59 26
114 -3 175 -27 59 -46 77 -106 104 -61 28 -115 26 -176 -4z"/>
<path d="M2420 3834 c-377 -48 -712 -251 -918 -556 -326 -483 -287 -1123 95
-1558 495 -563 1356 -588 1875 -52 196 202 313 436 352 703 60 408 -70 798
-363 1090 -185 185 -380 293 -631 350 -83 19 -331 33 -410 23z m310 -439 c279
-59 521 -261 620 -518 43 -109 60 -203 60 -320 -1 -234 -83 -431 -249 -598
-167 -166 -364 -248 -598 -249 -291 0 -550 137 -710 377 -97 146 -143 298
-143 473 0 235 83 434 249 601 122 121 260 198 424 233 85 19 260 19 347 1z"/>
<path d="M340 2754 c-141 -61 -168 -258 -50 -357 52 -45 86 -49 372 -45 l266
3 44 30 c138 97 118 306 -34 370 -54 22 -546 22 -598 -1z"/>
<path d="M4180 2754 c-141 -61 -168 -258 -50 -357 52 -45 86 -49 372 -45 l266
3 44 30 c138 97 118 306 -34 370 -54 22 -546 22 -598 -1z"/>
<path d="M1254 1540 c-62 -31 -388 -365 -404 -414 -20 -62 -9 -149 26 -198 58
-83 176 -113 269 -68 62 30 388 363 405 414 20 62 9 149 -26 198 -58 83 -178
113 -270 68z"/>
<path d="M3669 1537 c-64 -34 -102 -93 -107 -166 -7 -101 4 -118 191 -309 183
-184 236 -222 311 -222 43 0 117 29 150 58 30 26 66 113 66 157 -1 75 -32 121
-208 298 -99 99 -183 176 -208 187 -57 28 -138 27 -195 -3z"/>
<path d="M2510 1061 c-74 -24 -119 -63 -145 -123 -22 -55 -22 -541 0 -596 64
-152 273 -172 370 -34 l30 44 3 266 c4 286 0 320 -45 372 -48 57 -151 91 -213
71z"/>
</g>
</svg>
