<?xml version="1.0" standalone="no"?>
<!DOCTYPE svg PUBLIC "-//W3C//DTD SVG 20010904//EN"
 "http://www.w3.org/TR/2001/REC-SVG-20010904/DTD/svg10.dtd">
<svg version="1.0" xmlns="http://www.w3.org/2000/svg"
 width="40px" height="40px" viewBox="0 0 512.000000 512.000000"
 preserveAspectRatio="xMidYMid meet">

<g transform="translate(0.000000,512.000000) scale(0.100000,-0.100000)"
fill="#d6d6d6" stroke="none">
<path d="M2315 5109 c-800 -83 -1501 -518 -1927 -1196 -604 -960 -491 -2230
272 -3065 423 -463 951 -740 1585 -830 118 -17 511 -16 635 0 579 80 1097 337
1491 739 130 132 157 163 243 277 256 341 423 757 488 1211 17 118 17 512 0
630 -43 303 -122 561 -247 814 -134 268 -270 459 -483 674 -395 400 -889 649
-1457 733 -123 18 -478 26 -600 13z m800 -1439 c616 -22 747 -46 863 -154 96
-90 136 -209 163 -491 17 -174 18 -730 1 -910 -26 -272 -51 -375 -111 -455
-83 -110 -165 -152 -349 -175 -493 -62 -1923 -56 -2304 10 -196 34 -320 150
-361 340 -48 218 -69 677 -47 1030 25 411 55 528 161 640 91 96 177 123 464
145 352 28 1056 37 1520 20z"/>
<path d="M2240 2560 l0 -480 48 27 c615 352 781 449 781 453 0 4 -166 101
-781 453 l-48 27 0 -480z"/>
</g>
</svg>
