<?xml version="1.0" standalone="no"?>
<!DOCTYPE svg PUBLIC "-//W3C//DTD SVG 20010904//EN"
 "http://www.w3.org/TR/2001/REC-SVG-20010904/DTD/svg10.dtd">
<svg version="1.0" xmlns="http://www.w3.org/2000/svg"
 width="52px" height="52px" viewBox="0 0 1080.000000 1080.000000"
 preserveAspectRatio="xMidYMid meet">

<g transform="translate(0.000000,1080.000000) scale(0.100000,-0.100000)"
fill="#080808" stroke="none">
<path d="M4225 9490 c-129 -5 -144 -8 -193 -35 -61 -33 -120 -94 -154 -157
-20 -37 -23 -58 -23 -143 0 -124 20 -186 80 -253 58 -64 131 -98 252 -118 54
-8 127 -22 163 -30 185 -43 336 -177 407 -361 21 -57 27 -90 31 -199 l5 -131
-284 -6 c-376 -9 -543 -31 -804 -107 -435 -128 -784 -330 -1113 -645 -127
-121 -244 -261 -357 -430 -236 -352 -367 -699 -431 -1141 -24 -163 -24 -503 0
-674 121 -883 651 -1635 1431 -2030 251 -128 554 -225 820 -264 118 -18 426
-36 618 -36 l117 0 0 -102 c0 -57 -7 -132 -15 -167 -45 -191 -208 -362 -395
-415 -30 -9 -101 -22 -157 -31 -137 -20 -201 -46 -267 -106 -83 -75 -96 -111
-96 -255 0 -94 4 -128 19 -159 26 -58 98 -126 179 -168 l70 -37 1271 0 1271 0
71 36 c91 46 161 110 189 176 19 45 22 65 19 167 -4 105 -7 120 -32 163 -56
96 -174 164 -311 179 -190 21 -315 76 -422 184 -115 116 -160 226 -171 421
l-6 111 259 7 c428 12 653 45 924 136 415 139 746 344 1050 649 144 144 231
249 335 406 464 697 576 1543 308 2325 -224 655 -713 1215 -1330 1524 -393
197 -659 257 -1238 279 l-300 12 -3 55 c-4 76 15 211 40 278 30 84 102 186
166 239 91 74 179 109 348 138 208 36 268 66 341 172 l38 55 0 137 c0 110 -3
142 -17 167 -29 53 -102 119 -176 157 l-70 37 -1158 -2 c-638 -1 -1222 -4
-1299 -8z m2440 -250 c43 -22 63 -83 46 -139 -17 -57 -45 -72 -151 -82 -122
-11 -199 -32 -306 -84 -107 -52 -192 -113 -266 -193 -153 -165 -210 -325 -225
-622 -7 -144 7 -231 41 -265 29 -29 75 -33 496 -45 351 -10 488 -24 646 -64
770 -195 1387 -742 1679 -1488 52 -134 109 -344 130 -483 22 -142 30 -442 16
-609 -69 -822 -596 -1577 -1356 -1946 -373 -181 -656 -238 -1180 -240 -196 -1
-403 -16 -422 -31 -48 -40 -64 -177 -43 -374 21 -207 70 -339 175 -474 144
-183 381 -309 617 -328 96 -7 133 -27 149 -82 14 -47 7 -81 -25 -117 -23 -27
-27 -28 -172 -36 -82 -5 -639 -7 -1239 -5 -869 2 -1097 6 -1123 16 -64 26 -84
124 -36 180 26 32 27 32 175 51 340 42 639 301 718 620 40 161 49 383 20 493
-20 74 22 69 -699 97 -184 7 -281 15 -349 29 -486 103 -912 332 -1252 674
-328 329 -550 737 -653 1200 -34 151 -46 284 -46 502 0 299 30 502 110 745
247 746 807 1307 1551 1554 269 89 447 115 794 116 251 1 473 17 502 35 46 31
57 76 56 230 -3 354 -94 575 -310 746 -141 112 -310 184 -460 195 -107 8 -141
20 -164 58 -28 46 -25 99 9 137 25 28 37 33 98 39 38 4 598 7 1244 6 1026 -1
1179 -3 1205 -16z"/>
<path d="M4665 7563 c-11 -2 -81 -15 -155 -29 -312 -59 -561 -167 -885 -384
-147 -99 -327 -266 -392 -365 -22 -33 -69 -103 -105 -155 -230 -337 -352 -690
-377 -1093 -48 -784 314 -1517 966 -1953 113 -76 333 -188 459 -233 193 -70
429 -117 634 -127 151 -8 186 2 216 62 19 38 19 87 19 2109 0 2050 0 2070 -20
2110 -29 58 -50 65 -205 64 -74 -1 -144 -3 -155 -6z m125 -2164 l0 -1942 -52
7 c-386 50 -764 206 -1033 426 -85 70 -254 243 -316 325 -184 240 -301 498
-366 800 -26 122 -27 145 -28 385 0 206 4 272 18 345 56 280 151 506 328 776
41 62 109 142 203 238 116 118 163 159 266 226 291 192 487 269 836 329 76 14
140 25 142 25 1 1 2 -873 2 -1940z"/>
<path d="M5817 7555 c-10 -9 -25 -31 -35 -48 -16 -30 -17 -161 -17 -2112 l0
-2080 21 -35 c11 -19 31 -41 45 -47 52 -27 320 -8 518 37 760 171 1354 708
1602 1450 65 194 86 303 99 501 18 277 1 500 -55 714 -73 280 -200 544 -374
775 -97 129 -336 361 -471 457 -355 252 -745 386 -1161 400 -138 5 -157 4
-172 -12z m458 -260 c276 -53 565 -189 810 -380 98 -77 271 -254 346 -355 167
-223 303 -519 350 -764 42 -215 42 -596 -1 -805 -50 -248 -192 -555 -349 -758
-80 -104 -247 -275 -346 -355 -192 -154 -488 -300 -739 -362 -79 -20 -281 -56
-313 -56 l-23 0 0 1933 c0 1064 2 1936 5 1939 6 5 128 -12 260 -37z"/>
</g>
</svg>
