<?xml version="1.0" standalone="no"?>
<!DOCTYPE svg PUBLIC "-//W3C//DTD SVG 20010904//EN"
 "http://www.w3.org/TR/2001/REC-SVG-20010904/DTD/svg10.dtd">
<svg version="1.0" xmlns="http://www.w3.org/2000/svg"
 width="25px" height="25px" viewBox="0 0 512.000000 512.000000"
 preserveAspectRatio="xMidYMid meet">

<g transform="translate(0.000000,512.000000) scale(0.100000,-0.100000)"
fill="#080808" stroke="none">
<path d="M2565 4903 c-414 -25 -806 -155 -1151 -382 -360 -235 -629 -540 -819
-926 -167 -340 -239 -649 -239 -1035 0 -221 13 -344 61 -545 157 -667 622
-1252 1238 -1555 342 -168 662 -243 1045 -243 520 0 999 161 1417 474 251 189
510 493 648 760 35 69 38 80 30 115 -13 50 -65 88 -112 81 -18 -3 -63 -24
-102 -47 -156 -93 -395 -179 -596 -216 -77 -14 -149 -18 -315 -18 -194 0 -227
3 -340 27 -385 82 -718 265 -971 535 -585 624 -659 1553 -180 2263 130 194
283 347 474 476 54 36 102 74 107 84 15 27 12 82 -6 108 -20 28 -73 52 -111
49 -15 -1 -50 -3 -78 -5z m-350 -340 c-214 -240 -339 -451 -435 -731 -215
-634 -104 -1333 299 -1872 73 -97 245 -276 341 -353 401 -323 940 -492 1435
-448 154 14 337 49 458 89 48 15 87 26 87 24 0 -14 -126 -155 -218 -243 -511
-494 -1219 -698 -1917 -554 -449 93 -873 343 -1173 690 -354 411 -539 935
-519 1470 7 179 24 298 66 461 198 758 779 1335 1546 1535 61 15 111 28 113
29 2 0 -36 -44 -83 -97z"/>
</g>
</svg>
