<?xml version="1.0" standalone="no"?>
<!DOCTYPE svg PUBLIC "-//W3C//DTD SVG 20010904//EN"
 "http://www.w3.org/TR/2001/REC-SVG-20010904/DTD/svg10.dtd">
<svg version="1.0" xmlns="http://www.w3.org/2000/svg"
 width="800.000000pt" height="950.000000pt" viewBox="0 0 800.000000 950.000000"
 preserveAspectRatio="xMidYMid meet">

<g transform="translate(0.000000,950.000000) scale(0.100000,-0.100000)"
fill="#000000" stroke="none">
<path d="M0 4750 l0 -4750 3924 0 3925 0 -6 37 c-4 26 -20 53 -50 86 -25 26
-43 53 -41 59 3 7 19 16 37 20 35 10 54 42 40 69 -5 9 -4 30 0 47 6 20 5 34
-2 41 -7 7 -12 15 -13 19 0 4 -4 15 -9 25 -5 11 -2 24 8 35 8 9 17 28 19 42 2
19 11 26 43 34 22 5 43 14 47 20 5 6 8 1 8 -11 0 -14 6 -23 15 -23 8 0 15 9
15 20 0 13 7 20 20 20 20 0 20 7 20 3264 l0 3264 -28 5 c-34 7 -106 63 -121
95 -6 12 -17 22 -25 22 -8 0 -18 9 -21 20 -3 11 -12 20 -20 20 -7 0 -27 11
-43 25 -20 17 -42 25 -67 25 -29 0 -36 3 -31 15 3 9 -5 20 -22 29 -15 9 -23
15 -19 16 5 0 1 7 -7 16 -9 8 -16 28 -16 44 0 31 15 48 23 28 3 -7 6 -3 6 10
1 32 47 118 72 135 24 17 48 78 49 124 0 17 5 35 10 38 6 3 10 24 10 46 0 27
8 51 23 72 13 18 34 57 46 87 13 30 31 64 41 75 10 11 24 32 31 46 21 41 77
99 94 99 13 0 15 19 15 118 l0 119 -86 2 c-47 0 -91 4 -98 8 -16 11 -209 12
-301 2 -304 -32 -502 -57 -540 -69 -16 -5 -66 -12 -109 -15 -44 -4 -85 -9 -90
-13 -6 -4 -33 -8 -61 -8 -87 -3 -229 -25 -237 -37 -4 -7 -48 -13 -120 -15
-147 -4 -155 -6 -180 -49 l-22 -36 -20 25 c-12 14 -33 49 -48 77 -26 46 -31
51 -63 51 l-35 0 0 53 c0 61 -20 97 -54 97 -13 0 -31 9 -41 20 -21 24 -58 26
-75 5 -13 -15 -50 -21 -50 -7 0 4 7 16 15 26 24 32 18 46 -42 110 -58 60 -136
106 -290 170 -93 39 -131 42 -208 16 -87 -29 -188 -24 -240 12 -19 12 -35 26
-35 31 0 4 -5 7 -11 7 -6 0 -24 9 -39 20 -25 18 -28 24 -23 61 5 33 3 41 -8
37 -8 -3 -13 -18 -13 -37 l2 -31 -57 -2 c-31 -2 -78 -2 -105 0 -73 3 -124 -13
-128 -41 -3 -20 -8 -22 -70 -21 -38 0 -73 6 -82 13 -8 7 -24 10 -36 6 -27 -9
-45 7 -74 64 -13 25 -51 74 -84 108 -47 47 -61 68 -61 90 1 15 -1 37 -3 48 -3
17 3 20 43 23 42 3 49 0 69 -27 12 -17 28 -31 35 -31 8 0 22 -11 31 -25 19
-29 7 -52 -29 -57 -39 -5 -33 -43 16 -93 49 -52 60 -49 70 19 3 21 14 47 23
57 14 16 15 24 6 45 -7 13 -12 32 -12 41 0 14 3 13 21 -3 17 -16 38 -19 113
-20 120 -1 164 -25 121 -67 -8 -8 -11 -17 -8 -21 4 -3 -3 -6 -15 -6 -12 0 -22
-6 -22 -14 0 -9 18 -15 58 -19 31 -3 66 -7 77 -9 18 -3 20 2 17 44 -3 43 -1
49 21 59 32 15 51 94 31 131 -18 31 -17 58 0 58 8 0 18 10 22 23 4 12 17 38
30 57 13 19 24 44 24 56 0 12 6 24 13 26 20 7 107 -3 107 -13 0 -5 9 -4 20 3
14 9 20 24 20 50 l0 38 -84 0 c-76 0 -84 -2 -89 -21 -5 -17 -9 -19 -27 -9 -11
6 -18 15 -15 21 4 5 -363 9 -989 9 l-996 0 0 -21 c0 -26 26 -48 56 -49 20 0
21 -3 12 -40 -15 -60 5 -85 67 -85 46 0 49 -2 60 -34 13 -39 44 -55 87 -46 26
6 28 4 28 -23 0 -23 5 -31 24 -36 45 -11 37 -51 -24 -121 -32 -36 -40 -39
-110 -41 -54 -1 -94 -18 -162 -65 -14 -11 -30 -19 -34 -19 -34 0 -169 -88
-205 -134 -11 -14 -27 -26 -34 -26 -7 0 -22 -11 -33 -24 -10 -14 -41 -41 -68
-62 -27 -20 -65 -51 -84 -69 -19 -18 -46 -36 -60 -39 -14 -3 -19 -3 -13 0 10
4 9 11 -3 29 -27 41 -28 64 -20 265 3 69 2 119 -3 112 -18 -30 -32 16 -32 105
1 48 -1 113 -4 143 -3 30 -9 92 -13 137 -4 45 -13 88 -19 95 -7 6 -13 20 -13
30 0 17 -17 18 -279 18 l-278 0 4 -92 c5 -124 23 -355 30 -395 4 -26 2 -33
-11 -33 -20 0 -21 -14 -1 -34 21 -21 38 -158 30 -244 -6 -62 -4 -76 11 -93 16
-18 16 -21 -1 -58 -18 -42 -16 -93 7 -174 10 -32 9 -43 -6 -68 -11 -19 -17
-48 -16 -82 2 -72 1 -79 -9 -72 -5 3 -12 1 -16 -5 -3 -5 0 -10 8 -10 17 0 27
-21 27 -56 0 -15 -6 -24 -16 -24 -13 0 -15 -7 -9 -36 5 -31 3 -39 -17 -53 -12
-9 -32 -19 -43 -23 -19 -6 -19 -6 3 -7 27 -1 30 -21 3 -21 -13 0 -20 -9 -23
-29 -3 -23 -1 -27 13 -24 11 3 22 -4 29 -17 13 -25 12 -27 -15 -30 -43 -5 -55
0 -56 23 0 12 -3 16 -6 10 -2 -7 -12 -13 -22 -13 -9 0 -22 -5 -29 -12 -9 -9
-15 -9 -24 0 -14 14 -48 16 -48 4 0 -5 -8 -17 -17 -28 -10 -11 -23 -29 -29
-40 -8 -14 -24 -20 -62 -22 -46 -3 -51 -1 -55 20 -4 23 -4 23 -6 1 -1 -29 -44
-51 -115 -59 l-56 -7 0 44 c0 24 -7 53 -15 63 -8 11 -15 14 -15 7 0 -7 -4 -10
-9 -6 -5 3 -12 -3 -14 -12 -3 -12 -5 -10 -6 7 -1 16 -16 41 -39 63 -42 42 -50
45 -48 20 1 -14 -8 -19 -41 -21 -38 -3 -43 -1 -43 17 0 17 6 21 35 21 34 0 35
1 35 40 0 22 5 40 10 40 5 0 2 8 -8 18 -9 10 -19 15 -22 12 -3 -4 -13 -9 -22
-13 -10 -3 -18 -13 -18 -22 0 -8 -9 -15 -20 -15 -11 0 -20 5 -20 10 0 6 -9 10
-20 10 -25 0 -25 0 2 55 22 44 22 46 4 76 -16 28 -16 32 -2 54 23 35 21 48 -5
35 -16 -9 -25 -8 -40 6 -25 23 -25 54 1 54 11 0 20 5 20 10 0 6 13 10 29 10
39 0 46 14 24 45 -14 19 -26 24 -58 24 -22 -1 -32 -3 -23 -6 16 -4 16 -6 4
-19 -19 -19 -56 -18 -56 1 0 8 -6 15 -14 15 -8 0 -17 9 -21 19 -7 23 -58 46
-82 36 -17 -6 -17 -7 2 -17 33 -17 55 -51 55 -84 0 -67 -58 -42 -79 33 -6 23
-23 55 -36 71 -28 33 -32 64 -11 81 14 12 10 61 -5 61 -5 0 -9 -4 -9 -10 0 -5
-7 -10 -15 -10 -8 0 -28 -15 -44 -32 l-30 -33 -9 25 c-7 18 -6 31 4 47 8 12
14 27 14 33 0 5 13 23 30 38 16 16 26 32 22 36 -4 5 -7 31 -7 59 0 45 -3 52
-20 52 -16 0 -21 -8 -23 -42 -2 -34 0 -43 12 -43 22 0 20 -33 -2 -53 -17 -15
-19 -15 -35 3 -9 11 -17 27 -17 36 0 8 -6 22 -14 30 -8 7 -12 23 -9 34 3 11 0
33 -7 49 -10 25 -8 35 9 70 25 48 27 71 6 71 -8 0 -15 9 -15 20 0 11 -4 20
-10 20 -5 0 -10 11 -10 25 0 14 -17 60 -37 103 -40 81 -45 103 -29 114 6 4 5
31 -3 75 -7 37 -14 88 -15 111 -3 44 -16 62 -48 62 -10 0 -18 7 -18 15 0 8 9
15 20 15 13 0 20 7 20 20 0 19 -7 20 -160 20 l-160 0 0 -4750z m4077 4078 c-3
-7 -5 -2 -5 12 0 14 2 19 5 13 2 -7 2 -19 0 -25z m1372 -120 c11 -12 20 -31
19 -42 0 -12 3 -29 7 -38 13 -31 -53 -22 -99 12 -22 17 -52 30 -68 30 -17 0
-28 5 -28 14 0 17 21 26 63 27 18 0 41 4 52 9 29 13 32 12 54 -12z m-1089
-115 c53 -67 120 -243 92 -243 -8 0 -38 57 -72 135 -12 28 -33 60 -47 71 -18
16 -23 27 -18 43 9 28 19 27 45 -6z m1310 -38 c0 -11 7 -31 16 -43 28 -40 15
-64 -49 -88 -54 -21 -87 -23 -87 -4 0 4 10 20 21 35 12 15 26 47 30 73 5 25
17 54 26 64 16 18 18 18 30 2 7 -10 13 -27 13 -39z m-964 2 c45 -23 57 -43 56
-89 -1 -25 6 -57 17 -79 22 -42 40 -156 23 -145 -6 3 -27 36 -47 72 -38 70
-72 117 -142 198 -24 26 -43 52 -43 56 0 13 104 4 136 -13z m-4106 -299 c0
-16 -3 -19 -11 -11 -6 6 -8 16 -5 22 11 17 16 13 16 -11z m4835 -5 c-9 -37
-25 -53 -25 -26 0 29 10 53 22 53 6 0 7 -11 3 -27z m-4627 -55 c19 -19 14 -28
-16 -28 -34 0 -43 7 -35 26 6 17 35 18 51 2z m-153 -18 c3 -5 2 -10 -4 -10 -5
0 -13 5 -16 10 -3 6 -2 10 4 10 5 0 13 -4 16 -10z m185 -100 c0 -13 -7 -20
-20 -20 -13 0 -20 7 -20 20 0 13 7 20 20 20 13 0 20 -7 20 -20z m5319 -94 c45
-90 35 -187 -17 -169 -32 11 -42 36 -42 107 0 127 17 145 59 62z m-1729 -12
c54 -33 61 -35 94 -24 39 13 100 5 116 -16 7 -7 27 -18 46 -24 19 -7 46 -23
60 -37 19 -19 28 -23 37 -14 8 8 8 14 -1 23 -7 7 -12 22 -12 35 0 35 37 29 76
-13 19 -19 34 -39 34 -43 0 -5 13 -14 29 -20 15 -7 43 -28 62 -47 19 -19 43
-34 56 -34 27 0 95 -41 115 -68 14 -20 75 -42 118 -42 15 0 41 -15 63 -35 32
-29 46 -35 83 -35 25 0 55 5 67 12 25 13 239 38 266 31 10 -2 26 -22 35 -43 9
-22 26 -42 36 -45 11 -3 42 -22 70 -41 58 -40 72 -42 165 -19 39 9 79 18 90
20 15 3 25 20 38 67 10 35 29 74 42 88 13 14 27 40 32 58 4 18 12 33 16 33 4
-1 16 -1 27 -1 24 0 27 -32 5 -50 -9 -7 -14 -18 -12 -24 2 -6 -2 -28 -9 -48
-15 -42 -6 -54 22 -33 10 8 28 15 40 15 11 0 30 13 42 29 16 22 31 31 59 33
36 3 38 5 41 41 3 34 6 37 33 37 16 0 29 4 29 9 0 5 15 11 33 14 17 3 42 8 55
12 21 7 22 4 22 -37 0 -36 5 -48 33 -73 17 -17 50 -39 72 -50 24 -12 53 -40
75 -72 35 -52 90 -102 143 -129 15 -8 27 -11 27 -7 0 7 25 18 78 34 8 2 17 -3
21 -11 5 -8 13 -25 19 -37 7 -13 12 -45 12 -73 0 -40 -5 -56 -25 -78 -14 -15
-25 -21 -25 -14 0 6 -9 12 -20 12 -11 0 -20 5 -20 10 0 6 -9 10 -20 10 -14 0
-20 -7 -20 -22 0 -29 -28 -58 -57 -58 -16 0 -23 -6 -23 -20 0 -23 7 -22 -161
-25 -115 -2 -116 -2 -149 26 -30 26 -82 48 -120 50 -12 0 -11 2 2 7 21 8 13
22 -27 44 -26 14 -33 14 -49 2 -28 -20 -47 -17 -53 6 -7 25 -7 25 -49 -7 -37
-30 -46 -71 -19 -93 8 -7 15 -17 15 -22 0 -6 6 -24 14 -41 13 -30 59 -156 62
-167 2 -13 18 -72 34 -130 37 -136 63 -281 85 -475 14 -134 48 -312 64 -343 5
-9 14 -54 20 -100 6 -45 17 -95 26 -112 20 -39 19 -54 -9 -115 -14 -28 -30
-73 -37 -101 -15 -63 -46 -123 -66 -131 -10 -4 -23 3 -35 20 -11 15 -26 27
-34 27 -27 0 -74 30 -74 48 0 11 23 29 65 51 71 36 125 90 120 118 -2 10 -4
21 -4 25 -1 4 -19 20 -41 34 -34 23 -52 27 -103 27 -68 -1 -157 18 -193 42
-13 8 -41 15 -63 15 -31 0 -41 4 -46 20 -8 25 -15 25 -62 -1 -30 -17 -49 -20
-94 -16 -56 5 -78 -2 -112 -34 -15 -13 -25 -15 -50 -8 -18 5 -47 9 -65 9 -19
0 -47 8 -62 17 -27 16 -31 16 -69 -1 -23 -11 -48 -16 -58 -12 -21 9 -238 18
-373 17 -52 0 -124 -8 -159 -17 -35 -8 -73 -13 -84 -10 -11 2 -38 -1 -61 -8
-47 -15 -130 -33 -195 -41 -24 -3 -56 -12 -71 -20 -16 -8 -55 -14 -93 -14 -51
1 -79 -5 -128 -27 -62 -28 -111 -33 -174 -19 -16 3 -40 8 -52 11 -32 6 -88 58
-103 94 -8 19 -19 29 -29 28 -17 -3 -18 12 -5 65 6 26 1 34 -45 74 -28 24 -51
53 -51 63 0 10 -14 30 -31 45 -42 35 -56 22 -42 -40 8 -35 7 -47 -3 -56 -11
-9 -14 -8 -14 5 0 16 -13 25 -42 30 -25 4 -51 23 -40 30 14 8 3 108 -13 121
-22 18 -47 84 -41 109 4 16 -2 32 -19 52 -31 36 -32 67 -2 87 l22 15 -24 67
-23 67 31 28 c34 32 38 52 16 90 -16 27 -21 195 -7 204 13 8 5 91 -12 124 -22
43 -20 94 4 115 21 18 26 37 10 37 -5 0 -10 5 -10 11 0 6 -12 25 -26 42 -20
24 -24 37 -19 61 3 17 5 40 5 51 -4 85 -3 91 28 135 40 56 55 76 89 118 15 19
26 45 25 61 0 22 7 32 37 49 21 12 50 40 66 62 15 22 46 50 69 64 22 13 49 33
59 44 10 11 41 26 68 32 46 11 49 14 49 45 0 38 28 52 64 32 11 -7 30 -12 41
-11 11 1 26 2 33 3 6 1 12 8 12 16 0 15 69 53 98 54 8 1 40 -15 72 -35z
m-2837 -223 c8 -31 -8 -47 -28 -28 -9 10 -12 17 -6 17 6 0 11 7 11 15 0 21 17
19 23 -4z m-546 -53 c-3 -8 -6 -5 -6 6 -1 11 2 17 5 13 3 -3 4 -12 1 -19z
m5353 -8 c0 -5 -9 -10 -20 -10 -11 0 -20 5 -20 10 0 6 9 10 20 10 11 0 20 -4
20 -10z m-2665 -1820 c33 -17 67 -30 76 -30 9 0 32 -15 52 -34 31 -29 34 -36
22 -46 -9 -8 -25 -10 -42 -5 -16 4 -61 10 -101 13 -75 7 -86 14 -99 61 -4 15
-2 26 5 29 7 2 12 12 12 23 0 25 4 24 75 -11z m-1323 -55 c40 -14 96 -27 125
-29 61 -4 76 -17 92 -83 22 -87 6 -146 -32 -115 -6 6 -52 20 -101 32 -49 12
-107 30 -128 41 -48 25 -141 34 -193 20 -23 -6 -65 -29 -95 -51 -29 -22 -57
-40 -62 -40 -15 0 -8 40 13 83 28 55 65 94 113 119 107 55 163 60 268 23z
m3402 -266 c25 -20 26 -24 26 -125 0 -113 8 -147 68 -294 19 -47 47 -136 63
-199 15 -63 34 -120 42 -128 12 -12 22 -8 74 27 34 22 76 58 94 80 96 112 100
121 79 161 -6 10 -17 19 -24 19 -7 0 -24 10 -37 21 -13 12 -40 28 -59 36 -19
8 -50 26 -68 40 -33 25 -33 25 -12 40 20 14 23 13 44 -7 16 -14 42 -23 79 -27
49 -5 59 -3 89 21 38 28 84 34 111 14 14 -12 13 -20 -16 -95 -18 -45 -39 -90
-47 -100 -13 -15 -15 -44 -13 -163 2 -80 -1 -165 -6 -190 -5 -25 -15 -90 -22
-145 -7 -55 -16 -104 -21 -110 -4 -5 -8 -19 -8 -30 0 -33 -38 -175 -62 -230
-12 -27 -30 -70 -40 -95 -11 -25 -26 -57 -34 -72 -8 -14 -14 -50 -14 -80 0
-59 -34 -198 -51 -209 -6 -3 -11 -10 -11 -15 0 -5 -4 -19 -9 -32 -5 -13 -9
-28 -9 -33 0 -5 -11 -9 -24 -9 -25 0 -36 16 -36 55 0 29 -24 39 -43 17 -8 -9
-29 -47 -47 -83 -34 -72 -63 -95 -104 -85 -32 8 -33 28 -5 81 19 35 20 49 14
140 -7 111 5 164 43 184 34 18 129 40 150 34 12 -3 24 -20 31 -44 15 -49 28
-43 36 19 4 26 10 59 15 75 11 34 -6 87 -28 88 -35 1 -65 10 -155 45 -120 48
-160 52 -231 25 -80 -30 -265 -31 -313 -1 -45 27 -56 54 -50 121 10 113 96
170 218 145 99 -20 106 22 18 106 -52 51 -62 56 -75 44 -8 -8 -14 -19 -14 -24
0 -17 -47 -33 -86 -30 -31 2 -40 7 -42 25 -3 17 -12 23 -52 28 -27 4 -64 3
-82 -1 -18 -4 -36 -7 -40 -6 -5 1 -8 -6 -8 -16 0 -10 -14 -31 -30 -47 -25 -24
-29 -35 -25 -57 5 -20 1 -33 -14 -49 -16 -18 -19 -30 -14 -64 5 -37 3 -43 -16
-48 -29 -7 -26 -33 4 -41 14 -4 25 -13 25 -20 0 -8 8 -16 18 -18 12 -4 21 -18
25 -41 3 -19 17 -61 32 -93 21 -46 24 -62 16 -81 -6 -13 -15 -23 -21 -23 -14
0 -13 -36 2 -63 6 -12 24 -38 39 -57 29 -37 79 -151 79 -182 0 -10 -7 -18 -15
-18 -8 0 -15 -4 -15 -10 0 -5 -17 -3 -39 6 -29 11 -45 13 -59 5 -11 -6 -22 -7
-26 -4 -4 4 -30 10 -59 14 -91 12 -182 31 -192 40 -5 5 -17 9 -27 9 -10 0 -24
11 -30 25 -11 26 -48 35 -48 12 0 -22 -51 -37 -95 -27 -30 7 -45 6 -62 -6 -21
-13 -23 -13 -23 5 0 11 10 26 23 32 12 6 30 20 40 30 21 23 70 25 87 4 7 -8
17 -15 23 -15 6 0 1 11 -12 23 -13 15 -24 42 -28 74 -5 47 -4 50 18 56 13 4
33 7 45 7 11 0 31 12 45 26 l24 27 -62 -7 -61 -7 -7 30 c-4 17 -3 40 0 52 7
22 -12 79 -26 79 -5 0 -9 9 -9 20 0 11 5 20 10 20 15 0 12 32 -5 54 -10 13
-11 24 -5 37 15 26 12 49 -4 43 -34 -13 -156 82 -156 121 0 12 -5 26 -11 32
-7 7 4 19 40 42 28 17 55 31 60 31 11 0 51 54 51 68 0 13 -71 22 -197 25 -99
2 -118 7 -118 30 0 8 -22 12 -61 12 -45 1 -68 6 -91 23 -17 12 -41 22 -52 22
-12 0 -21 5 -21 10 0 6 5 10 11 10 7 0 0 9 -14 20 -14 11 -35 20 -48 20 -30 0
-59 27 -59 55 0 21 -4 22 -45 17 -28 -3 -45 -1 -45 6 0 6 -9 13 -20 17 -11 3
-38 22 -61 41 -40 33 -44 34 -99 28 -38 -4 -60 -3 -64 5 -4 6 -25 11 -46 11
-27 0 -47 7 -65 24 -23 21 -24 27 -14 52 7 16 11 38 10 48 -2 14 2 18 17 14
40 -11 42 7 7 45 -19 20 -41 37 -48 37 -16 0 -37 83 -26 101 6 10 12 9 27 -4
29 -27 62 -21 103 19 30 29 40 34 55 26 14 -8 22 -6 34 6 21 23 47 26 74 9 18
-12 31 -13 63 -4 37 10 43 8 76 -19 37 -29 62 -78 50 -97 -3 -6 -1 -7 5 -3 6
3 22 -5 36 -19 14 -14 31 -25 38 -25 7 0 65 -16 128 -36 63 -19 126 -39 140
-43 15 -4 24 -14 24 -24 -1 -12 11 -20 42 -28 25 -7 51 -20 58 -31 8 -12 61
-36 127 -59 91 -32 135 -42 218 -48 85 -6 106 -11 117 -26 13 -17 12 -21 -8
-32 -13 -7 -33 -12 -44 -13 -37 0 -49 -25 -35 -73 27 -91 35 -93 126 -27 39
28 93 66 120 85 44 30 103 83 159 144 20 21 102 50 171 58 48 7 57 14 149 123
74 87 117 165 130 235 4 21 18 54 32 74 13 20 24 39 24 44 0 14 56 77 69 77 4
0 20 -9 35 -21z m-3094 -360 c14 -32 8 -57 -15 -65 -23 -9 -45 15 -45 50 0 60
38 69 60 15z m2408 -1 c4 -33 -27 -54 -57 -38 -11 5 -42 10 -69 10 -27 0 -65
7 -83 15 l-34 14 50 1 c28 1 66 8 85 15 19 8 51 13 70 12 30 -2 35 -6 38 -29z
m-288 -73 c0 -9 -10 -16 -25 -16 -14 -1 -31 -2 -37 -3 -7 -1 -14 7 -16 17 -3
14 4 17 37 17 30 0 41 -4 41 -15z m-2434 -96 c32 -12 87 -22 122 -23 72 -3 87
-16 98 -83 7 -49 -1 -81 -29 -103 -28 -23 -13 -42 32 -38 29 2 38 -1 46 -19 5
-13 13 -23 17 -23 15 0 78 -94 78 -115 0 -20 -7 -23 -58 -29 -54 -6 -63 -4
-118 27 -130 73 -191 118 -222 161 -49 68 -41 96 28 96 33 0 53 27 48 63 -2
15 -16 26 -46 37 -41 16 -78 51 -65 64 8 8 1 9 69 -15z m3255 -1479 c21 -12
26 -46 7 -53 -22 -8 -48 13 -48 38 0 27 11 31 41 15z m-256 -42 c3 -3 3 -13
-1 -22 -6 -14 -16 -16 -58 -12 -28 3 -52 5 -53 6 -11 1 0 20 12 20 8 0 15 3
15 8 0 8 77 8 85 0z m425 -58 c11 -11 20 -25 20 -31 0 -6 9 -22 20 -36 19 -25
19 -25 0 -76 -23 -60 -35 -166 -22 -186 5 -7 40 -17 78 -21 38 -5 79 -11 91
-14 11 -2 43 -8 70 -11 26 -4 63 -14 82 -21 18 -8 41 -14 50 -14 27 0 253
-129 284 -161 15 -16 41 -32 57 -36 21 -4 44 -22 71 -57 22 -28 52 -57 65 -64
13 -7 24 -17 24 -22 0 -16 -30 -11 -51 9 -11 10 -40 21 -65 24 -31 3 -55 13
-73 31 -15 14 -34 26 -42 26 -7 0 -43 16 -79 35 -46 26 -73 34 -91 30 -20 -5
-34 0 -54 19 -20 19 -37 25 -68 24 -23 0 -65 4 -92 10 -31 6 -68 7 -95 1 -25
-4 -64 -8 -88 -9 l-43 0 6 -33 c6 -33 6 -34 -25 -29 -18 3 -38 14 -46 28 -9
13 -23 26 -32 28 -12 4 -18 18 -19 43 -2 48 -21 154 -36 199 -7 21 -11 22
-135 16 -141 -6 -166 -15 -188 -69 -15 -35 -32 -40 -67 -21 -12 7 -35 13 -52
13 -23 0 -31 5 -33 23 -2 12 -12 27 -23 32 -10 6 -25 23 -33 38 -17 35 -39
158 -31 182 10 32 75 63 133 64 47 1 57 -3 77 -27 14 -16 29 -52 36 -87 13
-68 45 -118 62 -101 6 6 18 11 27 11 9 0 24 14 34 30 9 17 22 28 27 24 16 -10
72 33 119 92 99 122 113 131 150 94z m-100 -550 c0 -5 -4 -10 -8 -10 -4 0 -20
-40 -36 -89 -22 -73 -36 -98 -70 -133 -50 -50 -93 -82 -123 -92 -33 -10 -93 3
-93 21 0 12 -9 14 -47 9 -27 -4 -61 -6 -76 -7 -15 0 -39 -4 -52 -9 -21 -8 -25
-7 -25 10 0 11 9 29 20 40 11 11 20 26 20 34 0 16 12 20 75 31 22 3 57 17 78
31 45 30 130 64 158 64 32 0 117 59 123 86 5 17 13 24 31 24 14 0 25 -4 25
-10z m-550 -281 c0 -13 -13 -11 -34 4 -16 12 -17 16 -5 34 13 21 13 21 26 -4
7 -14 13 -29 13 -34z m1655 41 c15 -6 46 -31 71 -57 41 -44 42 -48 27 -65 -16
-18 -18 -17 -47 9 -86 77 -93 83 -111 83 -8 0 -15 9 -15 20 0 23 31 27 75 10z
m-2760 -92 c16 -7 25 -19 25 -35 0 -12 -3 -23 -7 -23 -12 0 -53 43 -53 57 0
16 2 16 35 1z m90 -108 c3 -5 -1 -10 -9 -10 -9 0 -16 5 -16 10 0 6 4 10 9 10
6 0 13 -4 16 -10z m2009 -263 c-26 -15 -68 23 -72 64 l-3 34 45 -45 c39 -37
43 -46 30 -53z m-1189 3 c3 -5 -6 -37 -21 -70 -29 -61 -44 -64 -44 -7 0 16 -4
37 -10 47 -8 15 -5 20 18 28 36 14 50 14 57 2z m1279 -107 c4 -9 1 -22 -6 -30
-11 -10 -16 -9 -26 7 -8 13 -8 20 -1 20 5 0 7 5 4 10 -3 6 0 10 8 10 8 0 18
-8 21 -17z m123 -235 c16 -13 17 -40 1 -56 -9 -9 -9 -15 0 -24 15 -15 16 -55
1 -63 -6 -4 -18 3 -27 16 -20 28 -52 136 -43 144 7 8 52 -4 68 -17z m-1537
-101 c25 -20 45 -66 33 -78 -13 -13 -73 47 -73 73 0 21 18 23 40 5z m183 -190
c106 -108 227 -281 227 -324 0 -32 11 -54 23 -46 6 3 7 1 3 -5 -10 -16 -37
-15 -30 1 6 17 -62 91 -104 111 -23 12 -37 14 -51 7 -28 -15 -39 3 -31 54 12
76 7 87 -50 127 -56 39 -67 52 -86 106 -11 31 -11 32 13 32 17 0 44 -19 86
-63z m1452 -47 c3 -6 -1 -7 -9 -4 -18 7 -21 14 -7 14 6 0 13 -4 16 -10z m345
-159 c0 -15 -16 -22 -34 -15 -25 9 -19 24 9 24 14 0 25 -4 25 -9z"/>
<path d="M6481 7653 c-1 -7 -10 -13 -21 -13 -11 0 -20 -4 -20 -10 0 -5 0 -13
0 -17 0 -5 11 -11 25 -14 27 -8 35 5 24 41 -4 14 -7 19 -8 13z"/>
<path d="M6345 7538 c-4 -10 -4 -26 0 -35 6 -17 7 -17 16 0 7 11 7 23 0 35 -9
16 -10 16 -16 0z"/>
<path d="M6263 7503 c-7 -3 -13 -13 -13 -24 0 -14 7 -19 25 -19 18 0 25 5 25
19 0 20 -17 31 -37 24z"/>
<path d="M6257 7433 c-11 -11 -8 -20 9 -27 24 -9 36 3 20 20 -16 16 -20 17
-29 7z"/>
<path d="M6210 7353 c1 -5 12 -21 25 -38 24 -29 25 -29 25 -7 0 13 -6 30 -14
38 -16 15 -36 19 -36 7z"/>
<path d="M4064 5973 c-3 -10 -10 -26 -15 -35 -17 -33 -9 -42 16 -18 26 24 33
54 15 65 -6 3 -13 -2 -16 -12z"/>
<path d="M4678 4644 c-31 -16 -37 -34 -13 -34 28 0 87 29 80 40 -9 14 -35 12
-67 -6z"/>
<path d="M7181 9483 c0 -10 6 -45 13 -77 15 -71 37 -91 90 -81 29 6 39 15 56
49 11 23 20 61 20 84 l0 42 -90 0 c-79 0 -90 -2 -89 -17z"/>
<path d="M4990 9358 c0 -20 1 -21 20 -3 11 10 20 20 20 22 0 1 -9 3 -20 3 -14
0 -20 -7 -20 -22z"/>
<path d="M4975 8897 c-4 -10 -5 -21 -1 -24 10 -10 18 4 13 24 -4 17 -4 17 -12
0z"/>
<path d="M800 8680 c0 -5 5 -10 10 -10 6 0 10 5 10 10 0 6 -4 10 -10 10 -5 0
-10 -4 -10 -10z"/>
<path d="M665 8625 c-4 -22 -13 -43 -19 -47 -6 -4 8 -8 32 -8 38 0 42 2 42 25
0 18 -5 25 -19 25 -13 0 -21 8 -23 23 -3 16 -6 12 -13 -18z"/>
<path d="M760 8590 c0 -5 7 -10 15 -10 8 0 15 -9 15 -20 0 -11 7 -20 15 -20
19 0 19 27 1 46 -17 16 -46 19 -46 4z"/>
<path d="M720 8491 c0 -30 26 -49 43 -32 16 16 -1 61 -23 61 -15 0 -20 -7 -20
-29z"/>
<path d="M787 8414 c3 -9 9 -11 12 -6 3 5 15 12 26 15 13 3 9 5 -12 6 -26 1
-31 -2 -26 -15z"/>
<path d="M912 8240 c0 -14 2 -19 5 -12 2 6 2 18 0 25 -3 6 -5 1 -5 -13z"/>
</g>
</svg>
