<?xml version="1.0" standalone="no"?>
<!DOCTYPE svg PUBLIC "-//W3C//DTD SVG 20010904//EN"
 "http://www.w3.org/TR/2001/REC-SVG-20010904/DTD/svg10.dtd">
<svg version="1.0" xmlns="http://www.w3.org/2000/svg"
 width="1032.000000pt" height="1149.000000pt" viewBox="0 0 1032.000000 1149.000000"
 preserveAspectRatio="xMidYMid meet">

<g transform="translate(0.000000,1149.000000) scale(0.100000,-0.100000)"
fill="#080808" stroke="none">
<path d="M0 5745 l0 -5745 2115 0 c1163 0 2115 2 2115 5 0 3 -36 76 -79 163
-44 86 -85 171 -93 187 -7 17 -30 55 -49 85 -20 30 -41 71 -48 91 -6 20 -22
50 -34 66 -12 17 -42 71 -66 119 -24 49 -50 101 -57 116 -8 14 -14 35 -14 47
0 22 -36 97 -51 107 -5 3 -9 16 -9 29 0 13 -4 27 -10 30 -5 3 -10 21 -10 38 0
18 -6 41 -14 52 -17 25 -66 147 -66 166 0 8 -7 23 -15 33 -8 11 -15 31 -15 46
0 14 -6 34 -14 45 -14 21 -26 63 -29 105 -2 20 -7 24 -26 22 -21 -2 -23 1 -18
30 3 19 -1 40 -7 48 -7 8 -21 44 -31 80 -10 36 -25 72 -32 81 -7 9 -11 23 -8
31 4 9 -5 25 -19 39 -14 13 -28 40 -32 59 -3 19 -12 51 -21 70 -46 109 -66
154 -74 160 -14 12 -29 51 -29 77 0 15 -12 48 -26 73 -71 123 -95 171 -89 180
3 6 -3 24 -15 40 -12 16 -23 42 -26 57 -11 69 -18 90 -39 118 -12 16 -25 39
-28 50 -13 44 -37 105 -57 139 -11 20 -20 45 -20 55 0 10 -16 49 -35 87 -20
39 -35 83 -35 104 0 19 -7 44 -15 54 -8 11 -15 32 -15 47 0 14 -7 32 -15 39
-19 16 -19 54 -1 69 8 7 27 16 44 20 l30 9 -4 -45 c-1 -26 3 -51 9 -58 7 -7
19 -23 27 -35 8 -12 34 -45 56 -74 23 -28 45 -61 48 -73 4 -13 11 -23 15 -23
10 0 40 -30 81 -80 19 -24 59 -58 88 -77 28 -18 52 -37 52 -42 0 -12 90 -73
152 -103 50 -24 59 -25 72 -12 21 20 43 17 49 -6 4 -16 0 -20 -19 -20 -37 0
-29 -17 10 -22 20 -2 34 0 33 6 -2 13 56 9 100 -6 17 -7 34 -20 37 -31 4 -15
2 -17 -7 -8 -6 6 -23 11 -38 11 -15 0 -39 4 -53 10 -14 5 -26 7 -26 4 0 -8 54
-53 64 -54 5 0 24 -11 42 -25 18 -14 35 -25 39 -25 3 0 25 -9 49 -19 56 -26
136 -30 170 -8 25 17 25 17 8 47 -14 26 -21 30 -46 26 -16 -4 -36 -6 -45 -7
-11 0 -9 -3 7 -9 24 -10 30 -40 7 -40 -8 0 -24 4 -37 9 -13 5 -35 12 -50 15
-16 4 -28 13 -28 22 0 12 9 15 43 12 32 -2 42 0 42 12 0 10 -12 16 -37 18 -35
3 -37 5 -31 33 5 27 4 29 -27 29 -36 0 -35 -14 -13 122 4 28 3 39 -5 34 -6 -3
-14 -1 -18 6 -5 7 -10 4 -16 -12 l-9 -24 -15 23 c-11 15 -14 33 -9 60 6 36 4
39 -28 55 -44 20 -47 20 -47 -2 0 -9 9 -23 21 -30 27 -17 23 -67 -6 -67 -12 0
-21 8 -23 19 -2 11 -13 27 -24 36 -18 14 -19 20 -9 39 13 23 6 81 -9 81 -5 0
-7 -7 -3 -16 3 -8 -4 -25 -16 -38 -13 -14 -19 -29 -15 -39 4 -13 1 -17 -15
-17 -18 0 -20 3 -9 19 9 15 9 23 0 34 -7 8 -10 22 -6 31 3 9 1 16 -5 16 -6 0
-11 9 -11 19 0 10 -7 22 -16 25 -10 4 -13 13 -9 26 6 20 -9 28 -20 10 -10 -16
-35 -12 -35 5 0 9 7 27 16 40 13 20 20 23 34 15 12 -6 21 -6 25 -1 3 5 -4 12
-15 16 -11 3 -19 9 -19 13 4 23 -4 34 -31 43 -16 6 -30 14 -30 18 0 4 -13 22
-29 41 -26 31 -30 33 -46 20 -15 -13 -19 -12 -32 5 -8 11 -19 40 -26 63 -15
54 -41 72 -59 40 -6 -13 -11 -32 -10 -44 2 -11 -7 -29 -18 -39 -21 -19 -22
-19 -35 -1 -15 20 -10 46 10 46 24 0 24 16 1 43 -13 15 -32 27 -43 27 -20 0
-78 49 -69 58 3 2 28 -1 56 -8 35 -8 55 -9 62 -2 7 7 0 12 -21 17 -23 5 -31
12 -31 28 0 12 -9 28 -21 35 -13 9 -18 19 -14 32 3 10 1 21 -5 25 -21 13 -9
25 35 36 68 17 73 31 23 65 -24 16 -45 32 -48 35 -3 3 -24 4 -47 1 -49 -5 -67
-36 -27 -46 16 -4 24 -14 24 -27 0 -18 -4 -20 -47 -13 -60 8 -75 20 -48 40 20
15 20 16 -5 36 -14 12 -18 19 -9 16 8 -3 26 0 38 7 l24 12 -27 7 c-14 3 -26
13 -26 21 0 15 -10 19 -42 16 -9 -1 -28 5 -42 15 -30 19 -59 12 -54 -13 2 -10
-5 -22 -16 -28 -29 -14 -31 -82 -3 -97 16 -8 17 -12 6 -19 -9 -6 -18 -3 -26 7
-7 10 -19 14 -29 10 -19 -7 -12 -49 13 -74 14 -14 14 -17 -3 -29 -24 -17 -31
-17 -61 7 -14 11 -34 20 -43 20 -10 0 -25 11 -34 25 -9 14 -25 25 -35 25 -10
0 -24 7 -31 15 -7 8 -19 15 -26 15 -13 0 -18 12 -15 32 0 5 -7 16 -18 27 -10
10 -28 49 -40 87 -13 38 -34 89 -48 114 -42 74 -73 139 -73 155 0 8 -9 19 -20
25 -11 6 -20 17 -20 24 0 8 -7 19 -15 26 -8 7 -15 21 -15 31 0 10 -9 23 -20
29 -14 8 -20 21 -20 45 0 19 -5 35 -11 35 -5 0 -17 16 -25 36 -8 20 -26 53
-39 73 -13 20 -27 48 -30 63 -4 15 -13 32 -21 39 -8 6 -14 19 -14 29 0 10 -7
23 -15 30 -15 13 -20 51 -9 63 4 4 20 -5 36 -18 24 -20 33 -23 50 -14 11 6 22
9 24 6 3 -3 23 -1 45 4 30 7 47 5 70 -6 16 -9 38 -14 47 -11 9 3 30 2 47 -2
24 -7 29 -14 30 -38 0 -44 26 -36 52 15 14 28 34 49 51 57 16 6 32 21 35 33 9
38 78 17 82 -25 1 -10 5 -31 10 -46 5 -20 2 -35 -13 -55 -11 -16 -22 -39 -23
-53 -5 -30 -20 -31 -34 -2 -5 11 -17 23 -25 25 -14 3 -17 -5 -18 -44 -1 -55 7
-64 57 -60 49 3 116 -42 106 -72 -3 -12 -6 -26 -6 -32 1 -5 2 -21 4 -35 1 -14
16 -53 32 -88 25 -52 34 -62 50 -57 11 2 29 5 39 5 18 0 18 1 2 19 -15 16 -15
20 -1 31 23 19 45 5 45 -31 0 -36 23 -36 28 2 2 13 17 41 34 61 31 39 29 63
-3 55 -14 -4 -19 0 -19 14 0 39 -24 109 -38 109 -11 0 -12 3 -3 14 10 12 8 17
-8 26 -18 9 -21 20 -21 70 0 33 3 60 8 60 13 0 4 107 -11 137 -8 15 -24 37
-36 47 -12 11 -21 27 -21 36 0 10 -7 23 -15 30 -34 28 9 105 65 116 l29 6 -29
24 c-15 13 -33 24 -39 24 -6 0 -11 4 -11 8 0 5 -19 15 -41 22 l-41 14 25 20
c14 12 27 37 31 58 6 31 4 37 -14 43 -26 8 -26 35 0 35 31 0 23 17 -14 30 -44
14 -58 45 -41 93 7 20 10 38 6 39 -3 2 -14 18 -24 37 -14 27 -15 36 -5 42 7 5
9 9 4 9 -5 0 -3 7 4 15 10 12 9 15 -7 15 -11 0 -22 2 -25 5 -7 8 16 85 28 93
5 4 10 12 11 17 1 6 5 18 8 27 5 13 0 19 -18 23 -14 4 -28 16 -31 28 -8 32 0
32 28 2 29 -31 56 -28 56 8 0 33 -18 47 -51 40 -25 -5 -29 -2 -29 16 0 11 6
21 13 21 9 0 9 2 1 8 -7 4 -14 18 -15 32 -4 23 -1 25 41 25 92 0 167 59 126
100 -22 22 -20 30 10 44 19 8 24 16 19 29 -4 9 -11 31 -15 47 -4 17 -17 46
-28 65 -26 42 -28 68 -6 99 16 22 16 24 -15 48 -21 17 -30 31 -26 42 4 12 -3
21 -20 29 -22 10 -24 14 -14 31 10 15 8 22 -9 41 -29 32 -39 80 -18 92 14 8
14 12 2 36 -7 15 -19 58 -25 97 -12 66 -11 71 8 86 26 21 26 25 2 32 -23 6
-32 51 -15 75 11 16 10 24 -2 47 -16 32 -10 59 38 160 15 33 28 68 28 78 0 19
-15 23 -25 7 -4 -6 -12 -5 -21 4 -21 21 -17 27 11 20 29 -7 31 1 9 45 -18 36
-14 45 19 46 15 0 22 6 23 20 0 11 4 28 8 38 11 23 1 33 -17 18 -11 -8 -18 -7
-31 8 -15 16 -15 19 -1 31 12 10 19 10 27 2 7 -7 24 -12 39 -12 15 0 31 -5 34
-10 9 -15 25 -2 25 19 0 13 -10 20 -30 25 -39 7 -41 36 -2 36 50 0 57 15 18
39 -34 22 -66 57 -66 73 0 5 11 8 24 8 25 0 36 16 36 55 0 14 8 32 18 42 10
10 24 32 31 48 6 17 21 36 32 43 17 11 23 10 39 -10 15 -19 22 -21 37 -12 10
6 23 20 28 31 6 12 16 28 23 36 7 8 19 39 28 68 12 41 29 66 70 106 30 29 61
53 69 53 28 0 57 36 53 66 -2 22 5 37 29 61 17 18 37 33 44 33 10 0 10 -3 1
-12 -17 -17 -15 -65 4 -72 32 -12 55 -6 64 19 5 14 11 25 13 25 8 0 5 -40 -4
-45 -15 -10 0 -25 25 -25 13 0 29 7 36 15 14 17 46 20 55 5 3 -5 15 -10 25
-10 20 0 83 -30 88 -42 2 -5 20 -5 41 -2 21 3 54 1 74 -4 24 -7 39 -7 43 -1 4
6 11 6 20 -2 7 -6 25 -9 38 -5 15 4 28 0 36 -8 11 -14 50 -18 50 -5 0 4 -7 12
-15 19 -21 18 -19 47 6 60 43 24 63 -9 33 -54 -14 -22 -14 -25 6 -39 20 -14
75 -14 140 -1 l25 6 -24 12 c-35 19 -11 24 89 18 70 -4 83 -2 72 9 -16 17 -15
26 4 33 10 4 23 -3 36 -19 22 -29 40 -32 58 -10 20 24 40 18 40 -12 0 -21 3
-24 12 -15 15 15 54 16 63 2 9 -14 22 -12 29 5 3 8 -2 21 -10 30 -14 13 -13
15 5 15 22 0 41 -9 101 -46 19 -12 71 -32 115 -44 44 -12 85 -26 90 -30 6 -4
37 -11 70 -15 33 -4 78 -9 100 -12 62 -9 199 -7 319 5 61 6 117 7 126 2 9 -5
28 -3 48 6 18 7 45 11 60 8 20 -4 33 0 46 15 11 12 27 21 37 21 15 0 17 -5 12
-32 -6 -31 -6 -31 27 -25 18 4 36 7 41 7 14 0 10 26 -5 39 -22 18 -27 51 -8
58 10 4 25 -4 42 -25 25 -30 50 -42 50 -24 0 9 73 32 104 32 14 0 37 5 51 12
22 10 28 8 47 -12 l22 -23 31 35 c29 34 33 36 78 31 31 -4 51 -12 57 -23 13
-24 39 -33 56 -20 11 10 43 13 111 11 12 -1 26 -7 30 -15 12 -19 48 -36 78
-36 15 0 40 -11 57 -25 16 -14 35 -25 42 -25 7 0 21 -9 31 -20 10 -11 36 -25
58 -31 33 -9 38 -13 33 -33 -3 -13 3 -35 17 -56 l22 -35 3 28 c2 16 9 27 19
27 11 0 14 -6 9 -22 -3 -13 -6 -32 -7 -43 0 -14 -2 -16 -6 -6 -8 20 -42 -65
-42 -105 -1 -17 6 -37 14 -44 8 -7 15 -19 15 -26 0 -16 36 -19 45 -4 11 18 43
11 50 -11 9 -27 -23 -73 -54 -77 -26 -4 -27 -13 -1 -35 11 -9 21 -22 21 -29 3
-30 9 -65 15 -96 6 -30 4 -34 -25 -45 -26 -9 -31 -17 -29 -37 2 -18 10 -26 28
-28 14 -2 39 -13 54 -25 24 -20 27 -28 21 -55 -6 -28 -10 -32 -41 -32 -19 0
-34 -3 -34 -7 2 -30 41 -117 59 -129 11 -8 21 -23 21 -33 0 -23 41 -61 66 -61
33 0 35 -11 8 -43 -26 -31 -26 -35 -8 -131 2 -11 -4 -20 -16 -23 -22 -6 -28
-43 -7 -44 6 0 27 -20 44 -45 25 -34 29 -44 17 -44 -14 0 -15 -7 -11 -37 4
-21 11 -39 17 -41 5 -2 19 -11 31 -21 21 -17 21 -18 4 -55 -10 -21 -28 -44
-40 -52 -16 -10 -24 -28 -27 -59 -3 -24 -12 -51 -21 -59 -18 -18 -43 -21 -52
-6 -8 13 -62 13 -70 0 -11 -18 -53 -11 -69 11 -14 21 -17 21 -47 7 -18 -9 -27
-18 -20 -22 21 -13 11 -23 -29 -30 -22 -3 -40 -11 -40 -16 0 -6 -8 -10 -18
-10 -10 0 -28 -11 -40 -25 -26 -30 -57 -32 -74 -5 -16 25 -40 25 -76 3 -26
-17 -30 -21 -50 -51 -7 -11 -15 -8 -36 13 -18 18 -35 25 -53 23 -37 -4 -38
-19 -2 -56 34 -34 31 -55 -6 -46 -16 4 -29 0 -41 -14 -9 -11 -23 -18 -31 -15
-26 10 -105 -21 -114 -44 -5 -13 -15 -23 -24 -23 -8 0 -17 -12 -21 -27 -11
-50 -13 -53 -46 -53 -30 -1 -31 -2 -13 -12 30 -17 55 -45 55 -63 0 -13 -4 -14
-20 -5 -11 6 -20 16 -20 23 0 18 -50 20 -56 2 -4 -8 -12 -15 -20 -15 -8 0 -14
-7 -14 -15 0 -8 -4 -15 -10 -15 -5 0 -10 11 -10 24 0 13 -7 29 -15 36 -13 11
-15 6 -15 -36 l0 -49 51 -2 c59 -1 77 -15 81 -62 3 -35 -4 -43 -54 -61 -23 -8
-28 -15 -28 -44 0 -20 6 -36 14 -39 8 -3 17 -27 21 -55 4 -34 14 -56 30 -70
20 -17 23 -28 20 -62 -3 -28 0 -47 10 -57 12 -11 13 -19 4 -36 -7 -11 -13 -45
-14 -74 -3 -50 -1 -55 26 -68 29 -15 29 -15 9 -35 -21 -21 -26 -55 -10 -65 6
-3 10 -15 10 -25 0 -11 11 -27 24 -35 26 -17 25 -52 0 -62 -8 -3 -12 -9 -9
-13 8 -13 16 -82 19 -163 2 -43 8 -83 14 -89 7 -7 12 -32 12 -56 0 -31 6 -49
20 -60 11 -10 23 -36 28 -58 9 -39 8 -43 -15 -53 -18 -8 -23 -16 -18 -29 3 -9
11 -37 17 -62 5 -25 19 -62 30 -83 l19 -38 -23 -19 c-25 -20 -20 -32 24 -54
29 -15 68 -124 47 -136 -9 -6 -9 -12 4 -25 21 -20 22 -34 2 -41 -17 -7 -21
-34 -5 -34 6 0 10 5 10 10 0 12 11 13 30 0 13 -8 13 -13 2 -30 -10 -16 -10
-25 -2 -35 8 -9 5 -14 -10 -18 -33 -8 -25 -37 10 -37 17 0 30 -4 30 -9 0 -24
-14 -41 -34 -41 -11 0 -27 -4 -35 -9 -11 -7 -10 -13 8 -32 27 -29 27 -37 -3
-45 -28 -7 -55 -54 -31 -54 24 0 -4 -47 -42 -71 -27 -17 -39 -19 -63 -10 -17
5 -30 6 -30 1 0 -4 5 -10 12 -12 7 -3 8 -10 3 -17 -6 -11 -28 -12 -91 -8 -81
6 -114 16 -142 44 -7 7 -21 13 -31 13 -9 0 -26 6 -36 14 -11 8 -25 12 -32 9
-16 -6 -17 -45 -1 -61 17 -17 -4 -15 -30 4 -18 12 -39 14 -104 9 -161 -12
-224 -7 -220 17 2 12 -6 20 -23 24 -18 4 -27 16 -35 45 -20 73 -44 40 -31 -42
10 -61 53 -108 99 -110 123 -3 281 -27 319 -47 12 -7 47 -12 77 -12 45 0 57
-4 66 -20 6 -11 24 -27 40 -35 16 -8 33 -27 36 -40 6 -24 34 -36 34 -15 0 6 5
10 10 10 6 0 10 -7 10 -15 0 -8 -5 -15 -11 -15 -6 0 -23 -12 -38 -28 -31 -31
-49 -115 -30 -138 8 -10 8 -22 0 -44 -12 -37 1 -80 25 -80 13 0 15 7 10 34 -5
26 -3 35 10 40 15 6 15 8 1 24 -15 17 -15 19 0 35 13 13 15 19 5 29 -16 16
-15 29 1 22 7 -2 36 13 64 36 56 44 63 47 63 26 0 -21 33 -29 62 -15 21 9 31
6 71 -21 45 -30 59 -50 36 -50 -14 0 41 -54 64 -63 19 -7 22 -22 7 -32 -13 -8
6 -35 24 -35 6 0 16 -10 21 -22 15 -33 43 -35 51 -3 6 24 8 25 23 11 13 -12
20 -13 28 -5 16 16 43 3 43 -19 0 -11 -7 -25 -15 -32 -15 -13 -21 -60 -7 -60
9 0 36 41 37 55 0 12 42 55 53 55 5 0 19 -20 31 -45 12 -24 26 -47 32 -50 17
-11 9 -24 -18 -27 -20 -2 -29 -9 -31 -26 -4 -25 -11 -27 -47 -10 -21 9 -31 9
-46 0 -10 -7 -19 -8 -19 -3 0 5 -17 7 -38 4 -26 -4 -43 0 -53 10 -11 10 -21
12 -32 6 -11 -6 -23 -5 -36 2 -15 10 -22 9 -35 -4 -13 -12 -28 -15 -65 -10
-41 5 -54 2 -77 -16 -20 -16 -30 -18 -40 -10 -10 8 -22 7 -45 -5 -38 -19 -106
-21 -161 -4 -29 9 -44 9 -58 1 -17 -11 -73 -5 -98 11 -6 3 -13 2 -17 -4 -9
-15 -35 -12 -35 5 0 11 -8 13 -32 9 -47 -8 -108 -32 -125 -50 -10 -9 -31 -14
-59 -13 -51 3 -74 -12 -55 -35 7 -8 10 -20 6 -27 -5 -7 -10 -8 -14 -1 -3 6
-22 12 -41 14 -29 2 -37 -1 -45 -19 -10 -23 -31 -31 -37 -14 -4 13 -55 16
-110 7 -28 -5 -59 -4 -76 2 -33 11 -82 5 -82 -11 0 -6 -7 -18 -15 -28 -14 -15
-14 -18 0 -33 16 -16 32 -18 135 -21 30 0 106 -2 168 -4 81 -3 116 0 128 10
13 10 17 10 24 -2 8 -12 12 -12 32 0 34 22 242 25 285 5 29 -13 141 -22 345
-28 45 -1 54 -4 46 -14 -16 -19 0 -30 56 -41 26 -5 52 -13 57 -18 15 -15 -11
-63 -32 -63 -10 0 -22 -6 -26 -14 -8 -15 -63 -37 -148 -61 -27 -7 -51 -18 -53
-24 -5 -16 -52 -13 -58 4 -8 20 -33 19 -56 -2 -15 -13 -23 -15 -37 -6 -9 6
-30 9 -45 6 -19 -4 -31 0 -41 13 -14 18 -15 18 -34 -6 -15 -19 -22 -22 -33
-12 -8 6 -30 11 -49 10 -46 -2 -125 48 -108 68 8 10 8 15 -2 18 -8 2 -29 9
-46 15 -36 11 -35 13 -35 -56 0 -20 -6 -33 -14 -33 -16 0 -25 15 -34 54 l-7
31 -11 -38 c-15 -52 7 -96 43 -89 20 3 25 0 25 -15 0 -42 -48 -57 -83 -26 -17
16 -20 16 -30 2 -35 -46 -54 -66 -67 -72 -15 -7 31 0 63 9 27 8 31 -22 8 -52
-16 -20 -18 -30 -10 -35 7 -4 9 -14 6 -24 -5 -12 -17 -15 -44 -13 -36 3 -38 5
-35 36 2 28 -1 32 -22 32 -19 0 -25 -7 -32 -43 -7 -33 -14 -43 -32 -45 -13 -2
-33 3 -45 11 -22 14 -22 13 -22 -22 1 -49 10 -61 51 -61 24 0 42 -8 58 -25 23
-25 76 -35 76 -15 0 16 17 11 24 -7 10 -25 -5 -32 -50 -24 -23 4 -51 3 -65 -2
-21 -9 -18 -11 31 -18 30 -4 113 -10 184 -12 87 -3 131 -8 136 -17 8 -13 13
-8 35 35 13 25 57 31 75 10 12 -14 15 -14 32 2 14 13 21 14 30 5 17 -17 29
-15 26 6 -3 14 5 17 43 17 26 0 59 7 74 15 23 13 34 12 93 -3 40 -11 73 -26
83 -38 14 -19 16 -19 29 -4 12 14 23 16 65 9 27 -4 81 -7 118 -6 51 1 77 -3
105 -18 44 -24 62 -25 62 -5 0 8 9 15 20 15 23 0 24 -3 8 -30 -10 -15 -9 -22
4 -37 8 -10 23 -42 31 -72 15 -50 14 -54 -2 -58 -15 -4 -18 -12 -13 -49 4 -39
1 -47 -25 -71 -39 -36 -56 -116 -38 -171 5 -15 3 -22 -6 -22 -8 0 -25 -9 -39
-20 -22 -17 -23 -22 -12 -40 7 -11 9 -19 5 -18 -5 1 -24 -4 -43 -11 l-35 -13
33 -14 c34 -15 35 -39 0 -28 -21 6 -78 -13 -78 -27 0 -4 -9 -11 -20 -14 -14
-4 -20 -15 -20 -36 0 -21 -9 -38 -31 -56 -16 -14 -38 -42 -47 -61 -20 -42 -47
-52 -120 -42 -45 6 -54 4 -65 -13 -11 -17 -16 -18 -36 -8 -30 16 -81 7 -110
-20 l-23 -21 -44 32 c-25 17 -51 29 -59 26 -23 -9 -18 -20 20 -40 19 -11 35
-23 35 -28 0 -4 -16 -8 -35 -8 -28 0 -35 4 -35 20 0 26 -12 25 -28 -1 l-13
-21 -25 23 c-19 18 -24 19 -24 7 0 -9 -3 -24 -6 -32 -5 -12 4 -21 32 -33 30
-12 80 -17 207 -19 93 -2 173 -6 178 -10 5 -3 9 -17 10 -32 0 -27 0 -27 11 -4
12 24 46 30 65 11 9 -9 18 -8 35 3 13 8 49 18 81 22 47 5 59 3 64 -10 3 -8 -1
-23 -10 -31 -14 -14 -17 -14 -32 1 -20 20 -39 20 -55 1 -7 -8 -23 -15 -36 -15
-16 0 -24 -7 -26 -22 -2 -15 -9 -21 -18 -19 -45 13 -104 12 -114 -1 -6 -8 -22
-18 -34 -22 -22 -7 -22 -9 -8 -25 9 -10 16 -25 16 -34 0 -21 26 -22 47 -2 8 8
19 13 24 10 15 -10 10 -25 -7 -25 -9 0 -14 -6 -12 -12 7 -21 57 -21 86 -1 21
14 49 18 127 20 55 1 123 5 151 8 34 5 54 4 58 -4 4 -6 18 -11 30 -11 13 0 43
-7 66 -15 23 -8 61 -16 84 -18 22 -1 47 -6 54 -11 7 -4 28 -5 46 -2 23 4 37 1
52 -12 10 -10 37 -28 59 -41 38 -22 115 -97 115 -111 0 -3 8 -15 18 -26 27
-30 63 -114 57 -134 -3 -10 2 -39 10 -65 15 -41 15 -51 2 -78 -8 -18 -17 -47
-20 -64 l-6 -33 1739 0 1740 0 0 5745 0 5745 -5160 0 -5160 0 0 -5745z m3300
2435 c0 -5 -4 -10 -10 -10 -5 0 -10 5 -10 10 0 6 5 10 10 10 6 0 10 -4 10 -10z
m745 -70 c3 -5 -1 -10 -10 -10 -9 0 -13 5 -10 10 3 6 8 10 10 10 2 0 7 -4 10
-10z m534 -4 c7 -9 8 -17 2 -20 -15 -10 -40 5 -34 20 7 18 17 18 32 0z m146
-36 c0 -18 -78 -25 -107 -9 -32 17 -8 30 50 27 43 -2 57 -7 57 -18z m-585 -10
c0 -5 -4 -10 -10 -10 -5 0 -10 5 -10 10 0 6 5 10 10 10 6 0 10 -4 10 -10z
m230 0 c0 -5 -4 -10 -10 -10 -5 0 -10 5 -10 10 0 6 5 10 10 10 6 0 10 -4 10
-10z m427 -22 c-3 -8 -6 -5 -6 6 -1 11 2 17 5 13 3 -3 4 -12 1 -19z m-1897
-237 c0 -6 -4 -13 -10 -16 -5 -3 -10 1 -10 9 0 9 5 16 10 16 6 0 10 -4 10 -9z
m3770 -133 c0 -30 -25 -15 -28 17 -3 25 -2 27 12 16 9 -8 16 -22 16 -33z m20
-75 c0 -20 -16 -8 -23 17 -4 17 -3 19 9 9 8 -6 14 -18 14 -26z m64 -169 c18
-18 21 -50 5 -60 -6 -3 -23 5 -37 20 -15 14 -21 26 -14 26 6 0 12 7 12 15 0
19 14 19 34 -1z m-5121 -73 c-5 -21 -33 -37 -33 -19 0 8 26 36 37 38 0 0 -1
-9 -4 -19z m1015 -33 c-6 -18 -28 -21 -28 -4 0 9 7 16 16 16 9 0 14 -5 12 -12z
m4105 -54 c3 -3 -3 -16 -14 -27 -16 -18 -22 -19 -28 -8 -14 23 23 54 42 35z
m-5183 -63 c0 -5 -7 -14 -15 -21 -8 -6 -13 -17 -12 -22 1 -6 -4 -13 -10 -15
-19 -7 -16 27 4 49 17 19 33 24 33 9z m5230 -181 c0 -5 -5 -10 -11 -10 -5 0
-7 5 -4 10 3 6 8 10 11 10 2 0 4 -4 4 -10z m78 -362 c-7 -21 -36 -34 -49 -21
-6 6 -8 16 -5 22 10 15 59 14 54 -1z m86 -280 c9 -34 8 -38 -9 -38 -10 0 -15
10 -15 30 0 35 15 40 24 8z m-66 -88 c15 -1 14 -3 -2 -15 -24 -18 -42 -5 -31
22 5 12 9 14 12 6 3 -7 12 -13 21 -13z m-3 -210 c3 -5 1 -10 -4 -10 -6 0 -11
5 -11 10 0 6 2 10 4 10 3 0 8 -4 11 -10z m-387 -28 c2 -14 -2 -22 -12 -22 -19
0 -28 14 -20 35 9 21 28 14 32 -13z m82 -7 c0 -9 -7 -18 -15 -21 -23 -9 -45 3
-39 21 8 20 54 20 54 0z m-550 -115 c0 -5 -4 -10 -9 -10 -6 0 -13 5 -16 10 -3
6 1 10 9 10 9 0 16 -4 16 -10z m591 -397 c-45 -19 -65 -9 -21 10 19 8 39 13
45 9 5 -3 -6 -12 -24 -19z m-787 -29 c14 -5 14 -7 0 -21 -17 -17 -42 -3 -30
16 8 13 9 13 30 5z m711 -5 c-4 -5 -12 -8 -18 -6 -7 2 -20 0 -29 -5 -13 -6
-18 -5 -18 7 0 11 10 15 36 15 22 0 33 -4 29 -11z m-3971 -48 c3 -5 -1 -14 -8
-20 -16 -13 -32 2 -21 19 8 12 22 13 29 1z m3934 -79 c2 -15 -6 -33 -22 -49
l-26 -26 -25 23 c-32 30 -31 41 3 63 36 23 66 18 70 -11z m-3938 -22 c0 -5 -4
-10 -10 -10 -5 0 -10 5 -10 10 0 6 5 10 10 10 6 0 10 -4 10 -10z m4300 -51 c0
-11 7 -27 15 -35 29 -29 14 -67 -52 -136 -13 -15 -14 -22 -5 -44 7 -14 10 -30
7 -35 -4 -5 3 -9 14 -9 11 0 23 5 27 11 4 6 20 8 40 4 19 -3 40 -3 46 1 7 5
32 9 55 10 24 1 49 7 58 14 16 13 35 6 35 -14 0 -13 -16 -23 -80 -49 -100 -42
-160 -54 -305 -62 -101 -5 -132 -15 -119 -36 2 -4 19 -10 39 -13 19 -4 38 -12
42 -19 8 -12 34 -26 90 -47 17 -6 34 -18 37 -26 9 -24 36 -16 36 11 0 19 -5
25 -22 25 -17 0 -19 3 -10 12 9 9 21 8 52 -1 45 -13 54 -42 20 -63 -11 -7 -20
-21 -20 -30 0 -11 -14 -23 -34 -32 -18 -7 -35 -23 -38 -34 -7 -26 -1 -32 29
-32 29 0 103 -48 103 -66 0 -19 10 -18 25 3 11 15 17 15 39 5 15 -7 57 -15 94
-18 54 -5 70 -3 80 9 8 9 20 13 28 10 10 -4 14 2 14 21 0 14 5 26 10 26 6 0
10 -12 10 -26 0 -16 7 -28 18 -30 9 -3 27 -20 39 -39 17 -26 29 -33 51 -33 47
1 57 -11 31 -39 -19 -19 -21 -27 -12 -41 8 -13 7 -24 -4 -45 -12 -23 -19 -28
-38 -23 -13 3 -26 2 -30 -3 -3 -5 5 -11 17 -13 21 -3 23 -9 26 -77 2 -41 -1
-78 -6 -83 -5 -5 -20 -4 -36 2 -30 11 -32 8 -40 -50 -3 -19 -12 -40 -20 -46
-9 -6 -16 -16 -16 -21 0 -18 -27 -34 -44 -27 -22 8 -20 31 4 46 11 7 20 18 20
25 0 15 -26 17 -35 3 -3 -5 -15 -10 -26 -10 -20 0 -25 -20 -9 -36 10 -10 -7
-73 -24 -86 -5 -3 -33 -9 -62 -13 -64 -8 -80 -31 -33 -47 26 -9 29 -12 15 -20
-9 -5 -16 -16 -16 -23 0 -8 -4 -15 -10 -15 -5 0 -10 9 -10 20 0 27 -67 45
-104 29 -35 -16 -35 -55 -1 -71 26 -12 35 -51 14 -63 -6 -4 -36 11 -67 33 -31
21 -63 37 -69 35 -20 -7 -16 4 11 30 27 27 104 67 128 67 19 0 31 26 22 52 -8
25 -51 17 -76 -14 -10 -11 -24 -18 -33 -14 -19 7 -20 32 -1 39 19 8 9 45 -14
52 -10 3 -21 12 -24 20 -3 8 -14 15 -24 15 -11 0 -30 8 -43 18 -13 10 -39 24
-56 31 -28 12 -33 18 -33 48 0 28 -5 36 -28 44 -19 6 -31 20 -38 42 -8 28 -13
32 -41 29 -28 -3 -33 1 -39 23 -3 14 -4 29 0 32 3 4 6 -2 6 -11 0 -10 6 -16
13 -13 19 6 9 79 -14 102 -11 11 -30 36 -42 55 -15 23 -33 37 -52 40 -15 3
-30 10 -32 17 -3 7 3 10 15 6 26 -6 36 11 22 38 -9 15 -15 18 -23 10 -17 -17
-24 -13 -31 20 -6 30 -23 74 -53 136 -8 17 -12 36 -9 42 4 5 2 19 -4 31 -5 11
-14 29 -20 40 -13 26 -13 53 1 67 7 7 8 17 3 25 -20 32 -15 57 16 73 32 17 37
36 22 90 -10 35 -6 55 13 55 7 0 16 11 19 25 4 14 13 25 21 25 14 0 16 -4 19
-37 2 -23 96 -121 136 -142 41 -21 49 -21 211 -12 9 1 38 18 64 39 50 40 70
80 81 165 7 47 24 66 24 26z m-110 -90 c0 -26 -50 -61 -110 -75 -52 -12 -61
-11 -95 6 -20 10 -43 16 -51 13 -8 -3 -17 3 -21 12 -9 26 22 46 54 34 62 -23
147 2 174 52 l11 22 19 -24 c10 -13 19 -31 19 -40z m235 51 c3 -5 0 -10 -8
-10 -8 0 -17 -9 -20 -20 -3 -11 -10 -20 -17 -20 -7 0 -14 9 -17 20 -3 11 -9
20 -14 20 -5 0 -9 5 -9 10 0 6 18 10 39 10 22 0 43 -4 46 -10z m-4390 -100 c0
-8 -8 -16 -17 -18 -13 -2 -18 3 -18 18 0 15 5 20 18 18 9 -2 17 -10 17 -18z
m4325 -13 c0 -5 -4 -5 -10 -2 -5 3 -10 14 -10 23 0 15 2 15 10 2 5 -8 10 -19
10 -23z m-4536 -2 c3 -8 1 -15 -4 -15 -6 0 -10 7 -10 15 0 8 2 15 4 15 2 0 6
-7 10 -15z m4776 -19 c0 -16 -18 -31 -27 -22 -8 8 5 36 17 36 5 0 10 -6 10
-14z m-4676 -102 c12 -30 6 -54 -12 -54 -25 0 -42 19 -42 47 0 18 6 23 24 23
13 0 27 -7 30 -16z m-184 -14 c0 -5 -4 -10 -10 -10 -5 0 -10 5 -10 10 0 6 5
10 10 10 6 0 10 -4 10 -10z m-144 -115 c-10 -8 -23 -12 -28 -9 -14 9 2 24 25
24 21 -1 21 -1 3 -15z m-76 -39 c0 -8 -5 -18 -11 -22 -14 -8 -33 11 -25 25 10
16 36 13 36 -3z m5060 -192 c0 -8 -5 -12 -10 -9 -6 4 -8 11 -5 16 9 14 15 11
15 -7z m180 -24 c0 -34 -34 -61 -44 -34 -10 26 5 64 25 64 14 0 19 -7 19 -30z
m-226 -9 c-17 -4 -36 -11 -42 -15 -15 -9 -34 2 -27 15 4 5 27 9 53 8 42 -1 44
-2 16 -8z m-4418 -228 c3 -10 14 -34 24 -54 10 -20 15 -40 11 -45 -11 -16 -31
-14 -37 3 -4 10 -13 33 -21 51 -15 34 -12 62 7 62 6 0 13 -8 16 -17z m4667
-235 c6 -19 -3 -38 -19 -38 -8 0 -14 -5 -14 -12 0 -8 -6 -7 -16 4 -13 12 -14
20 -5 37 13 23 47 28 54 9z m-650 -90 c31 -30 32 -61 4 -66 -24 -5 -47 16 -47
42 0 12 -9 29 -20 39 -11 9 -20 21 -20 27 0 15 51 -11 83 -42z m587 12 c0 -5
-4 -10 -10 -10 -5 0 -10 5 -10 10 0 6 5 10 10 10 6 0 10 -4 10 -10z m-530
-140 c0 -5 -4 -10 -10 -10 -5 0 -10 5 -10 10 0 6 5 10 10 10 6 0 10 -4 10 -10z
m-3935 -330 c-3 -5 -15 -10 -25 -10 -10 0 -22 5 -25 10 -4 6 7 10 25 10 18 0
29 -4 25 -10z m5 -60 c0 -5 -4 -10 -10 -10 -5 0 -10 5 -10 10 0 6 5 10 10 10
6 0 10 -4 10 -10z m-50 -24 c0 -7 -9 -16 -20 -19 -11 -3 -20 -12 -20 -21 0
-13 -4 -14 -25 -4 -27 12 -33 28 -11 28 7 0 19 7 26 15 16 19 50 20 50 1z
m180 -34 c0 -9 -10 -12 -27 -10 -20 2 -29 9 -31 25 -3 20 -1 21 27 10 17 -6
31 -17 31 -25z m-140 8 c0 -5 -7 -10 -15 -10 -8 0 -15 5 -15 10 0 6 7 10 15
10 8 0 15 -4 15 -10z m170 -60 c0 -5 -9 -10 -20 -10 -13 0 -20 -7 -20 -20 0
-24 -13 -26 -30 -4 -11 13 -10 16 8 21 12 3 22 9 22 14 0 5 9 9 20 9 11 0 20
-4 20 -10z m29 -82 c23 -37 18 -46 -34 -64 -30 -10 -37 -10 -42 2 -3 8 -9 11
-14 8 -5 -3 -9 4 -9 15 0 27 17 27 25 0 4 -11 14 -19 23 -17 24 5 27 29 3 35
-23 6 -27 23 -9 41 20 20 35 14 57 -20z m271 -89 c0 -11 -4 -17 -10 -14 -5 3
-10 13 -10 21 0 8 5 14 10 14 6 0 10 -9 10 -21z m25 -79 c3 -5 1 -10 -4 -10
-6 0 -11 5 -11 10 0 6 2 10 4 10 3 0 8 -4 11 -10z m95 -125 c0 -8 -4 -15 -10
-15 -5 0 -10 7 -10 15 0 8 5 15 10 15 6 0 10 -7 10 -15z m35 -55 c17 -34 18
-40 6 -40 -21 0 -52 36 -46 53 10 25 22 21 40 -13z m-157 -17 c-2 -13 -14 -19
-43 -21 l-40 -2 25 20 c32 25 63 26 58 3z m2985 -37 c5 -14 -10 -36 -25 -36
-4 0 -8 8 -8 18 0 31 23 44 33 18z m-2914 -47 c11 -19 11 -21 -4 -15 -9 3 -21
6 -26 6 -5 0 -9 7 -9 15 0 22 23 18 39 -6z m3211 -51 c13 -12 18 -24 12 -26
-11 -3 -52 27 -52 40 0 14 16 8 40 -14z m148 -7 c3 -8 -1 -12 -9 -9 -7 2 -15
10 -17 17 -3 8 1 12 9 9 7 -2 15 -10 17 -17z m-1268 -206 c0 -18 37 -38 60
-32 10 2 24 1 31 -4 9 -6 -2 -9 -31 -9 -25 0 -55 -3 -66 -6 -15 -4 -23 0 -28
13 -4 10 -2 19 3 21 6 2 11 10 11 18 0 8 5 14 10 14 6 0 10 -7 10 -15z m-80
-15 c0 -5 -9 -10 -21 -10 -11 0 -17 5 -14 10 3 6 13 10 21 10 8 0 14 -4 14
-10z m230 -4 c0 -3 -4 -8 -10 -11 -5 -3 -10 -1 -10 4 0 6 5 11 10 11 6 0 10
-2 10 -4z m460 -26 c0 -5 -4 -10 -9 -10 -6 0 -13 5 -16 10 -3 6 1 10 9 10 9 0
16 -4 16 -10z m2439 -299 c11 -7 11 -15 3 -39 -12 -35 -101 -148 -142 -180
-17 -13 -30 -28 -30 -34 0 -16 -321 -328 -338 -328 -4 0 -15 -8 -24 -17 -34
-35 -75 -66 -197 -146 -150 -100 -136 -91 -193 -117 -27 -12 -50 -26 -54 -31
-3 -5 -14 -9 -26 -9 -11 0 -37 -13 -58 -30 -21 -16 -45 -30 -53 -30 -9 0 -18
-4 -22 -10 -6 -10 -186 -100 -201 -100 -5 0 -49 -21 -99 -45 -94 -47 -145 -57
-145 -29 0 8 -7 22 -15 30 -20 20 -19 33 3 41 9 4 28 15 41 25 13 10 33 18 45
18 29 0 57 32 101 116 9 17 28 37 43 44 15 7 42 20 60 29 41 20 56 44 48 81
-4 24 -1 29 19 34 16 4 25 14 25 26 0 12 12 26 30 35 22 11 30 23 30 41 0 18
13 38 40 63 51 45 62 89 30 121 -20 20 -22 52 -3 49 26 -4 33 4 33 41 0 45 8
49 33 20 22 -26 43 -16 72 35 16 30 27 38 53 40 17 2 29 -1 26 -6 -6 -11 7
-12 23 -1 14 9 21 94 7 99 -6 2 -9 17 -6 33 4 26 1 29 -32 36 -46 8 -42 28 7
32 36 3 43 -4 39 -39 -1 -4 8 -15 18 -24 24 -21 26 -55 5 -55 -24 0 -17 -17 9
-24 32 -8 56 2 56 23 0 9 9 30 19 47 10 17 22 45 25 61 9 38 14 41 99 38 38
-1 70 2 72 5 2 3 63 7 136 8 72 2 137 6 143 9 29 19 221 29 245 14z m-729 -50
c0 -16 -19 -23 -40 -16 -30 10 -24 25 10 25 17 0 30 -4 30 -9z m-2312 -94 c2
-10 -3 -17 -12 -17 -18 0 -29 16 -21 31 9 14 29 6 33 -14z m1403 -1038 c-30
-25 -51 -25 -44 0 6 23 44 43 58 29 7 -6 2 -16 -14 -29z m-281 -209 c-14 -11
-31 -20 -38 -20 -7 0 -25 -9 -40 -20 -36 -26 -75 -30 -80 -8 -4 21 47 49 75
42 12 -3 34 1 49 10 42 22 65 20 34 -4z m-316 -96 c27 -10 18 -31 -15 -32 -17
0 -37 -6 -45 -13 -25 -21 -28 0 -4 26 24 26 37 29 64 19z m926 -708 c0 -13 -7
-26 -15 -30 -8 -3 -15 -12 -15 -20 0 -25 -33 -29 -52 -6 -18 22 -15 46 3 35
16 -10 48 5 54 26 9 27 25 24 25 -5z m80 -73 c0 -20 -3 -24 -11 -16 -7 7 -9
19 -6 27 10 24 17 19 17 -11z m60 1 c0 -8 -5 -12 -10 -9 -6 4 -8 11 -5 16 9
14 15 11 15 -7z"/>
<path d="M6712 4778 c-13 -13 -16 -41 -6 -51 11 -11 34 5 34 24 0 10 5 19 11
19 5 0 7 5 4 10 -8 14 -28 13 -43 -2z"/>
<path d="M7235 4561 c-3 -5 -1 -12 5 -16 5 -3 10 1 10 9 0 18 -6 21 -15 7z"/>
<path d="M7298 4489 c-26 -15 -22 -39 5 -39 28 0 47 17 40 36 -6 16 -21 17
-45 3z"/>
<path d="M6880 4380 c0 -5 5 -10 11 -10 5 0 7 5 4 10 -3 6 -8 10 -11 10 -2 0
-4 -4 -4 -10z"/>
<path d="M6918 4333 c-9 -33 2 -43 23 -22 10 10 19 24 19 29 0 17 -37 11 -42
-7z"/>
<path d="M7017 4064 c-8 -9 11 -44 24 -44 16 0 23 31 8 41 -17 10 -24 11 -32
3z"/>
<path d="M7460 1903 c0 -5 5 -15 10 -23 7 -11 12 -12 21 -3 6 6 8 16 5 22 -8
12 -36 15 -36 4z"/>
<path d="M6955 1230 c-3 -5 1 -10 10 -10 9 0 13 5 10 10 -3 6 -8 10 -10 10 -2
0 -7 -4 -10 -10z"/>
<path d="M3140 8012 c0 -24 8 -32 26 -25 19 7 18 29 -2 37 -23 9 -24 8 -24
-12z"/>
<path d="M6008 7963 c7 -3 16 -2 19 1 4 3 -2 6 -13 5 -11 0 -14 -3 -6 -6z"/>
<path d="M2961 7704 c0 -11 3 -14 6 -6 3 7 2 16 -1 19 -3 4 -6 -2 -5 -13z"/>
<path d="M2810 7681 c0 -6 5 -13 10 -16 6 -3 10 1 10 9 0 9 -4 16 -10 16 -5 0
-10 -4 -10 -9z"/>
<path d="M2787 7591 c-13 -27 -12 -81 2 -81 19 0 32 30 26 59 -5 25 -3 30 17
33 21 3 21 4 -5 9 -23 5 -30 2 -40 -20z"/>
<path d="M2690 7281 c0 -10 11 -26 24 -34 21 -14 25 -14 30 -1 3 8 -1 17 -9
20 -8 4 -15 12 -15 20 0 8 -7 14 -15 14 -8 0 -15 -8 -15 -19z"/>
<path d="M2666 7211 c-4 -7 -5 -15 -2 -18 9 -9 19 4 14 18 -4 11 -6 11 -12 0z"/>
<path d="M2642 7027 c2 -28 67 -70 87 -58 10 7 10 13 -1 32 -22 38 -35 49 -62
49 -21 0 -25 -4 -24 -23z"/>
<path d="M2620 6981 c0 -6 5 -13 10 -16 6 -3 10 1 10 9 0 9 -4 16 -10 16 -5 0
-10 -4 -10 -9z"/>
<path d="M6780 6420 c0 -5 5 -10 10 -10 6 0 10 5 10 10 0 6 -4 10 -10 10 -5 0
-10 -4 -10 -10z"/>
<path d="M6594 6348 c-7 -10 21 -38 38 -38 16 0 8 25 -12 37 -14 9 -21 10 -26
1z"/>
<path d="M5887 6031 c14 -11 31 -17 43 -14 33 9 17 28 -26 31 l-39 2 22 -19z"/>
<path d="M4783 5999 c-8 -8 -56 -13 -140 -15 -70 -2 -147 -7 -170 -12 -22 -5
-82 -7 -132 -5 -52 2 -99 0 -109 -6 -15 -10 -15 -11 6 -17 12 -3 22 -13 22
-21 0 -15 -12 -15 -66 2 -16 5 -31 -2 -58 -26 -28 -24 -40 -29 -49 -20 -17 17
-42 13 -62 -9 -17 -18 -20 -19 -41 -5 -29 19 -32 19 -36 -2 -2 -13 -14 -18
-43 -20 -22 -1 -68 -4 -102 -6 -51 -4 -67 -2 -87 14 -29 23 -40 24 -56 3 -10
-11 -24 -14 -56 -9 -24 3 -53 0 -68 -7 -20 -9 -29 -9 -38 0 -15 15 -100 15
-133 0 -33 -15 -32 -35 5 -56 24 -13 30 -24 30 -50 0 -28 2 -32 17 -23 13 7
26 5 45 -7 30 -18 48 -11 29 12 -10 12 -8 16 8 21 15 5 28 -1 46 -22 29 -33
30 -37 9 -68 -17 -26 -12 -45 13 -45 11 0 14 -6 9 -24 -4 -16 0 -30 10 -40 14
-15 13 -17 -11 -26 -14 -5 -23 -14 -20 -20 8 -13 -6 -13 -42 0 -24 9 -25 8
-12 -3 15 -11 15 -15 -7 -40 -25 -29 -32 -57 -14 -57 6 0 10 -7 10 -15 0 -9
-6 -12 -15 -9 -10 4 -15 0 -15 -11 0 -25 19 -55 35 -55 8 0 23 -9 33 -21 16
-17 27 -19 58 -13 44 8 94 39 94 59 0 7 17 23 37 35 21 12 43 31 51 41 7 10
19 19 27 19 27 0 105 40 105 54 0 19 19 25 53 15 15 -4 25 -4 23 0 -6 10 48
51 67 51 8 0 29 -7 47 -16 26 -13 37 -14 51 -5 21 13 52 15 63 4 4 -5 24 -8
44 -9 21 0 50 -4 66 -9 21 -6 27 -5 22 4 -12 19 39 13 64 -9 13 -11 34 -20 48
-20 14 0 30 -8 37 -17 11 -15 15 -15 29 -4 13 11 20 11 28 3 7 -7 9 -14 6 -17
-11 -11 -114 -15 -147 -5 -23 6 -40 6 -54 -2 -12 -6 -71 -10 -145 -9 -82 1
-129 -2 -138 -10 -11 -9 -21 -9 -39 -1 -21 10 -24 8 -34 -19 -13 -37 -31 -38
-32 -1 -1 22 -2 24 -7 7 -11 -33 -53 -74 -84 -80 -16 -4 -34 -15 -41 -26 -6
-10 -16 -19 -22 -19 -6 0 -25 -15 -43 -34 -27 -29 -30 -37 -19 -48 11 -10 12
-17 3 -32 -8 -14 -8 -20 2 -23 7 -3 19 -12 27 -20 19 -19 45 -10 45 15 0 28
28 51 117 97 17 9 34 23 37 31 3 8 15 14 27 14 20 0 21 -4 16 -42 -4 -29 -1
-60 11 -93 17 -51 66 -115 87 -115 7 0 24 -9 39 -21 17 -13 41 -21 64 -21 54
1 126 13 136 23 6 5 18 9 27 9 9 0 35 18 57 39 33 32 42 49 49 93 7 45 12 54
31 56 18 3 22 8 16 20 -16 37 -10 67 13 70 17 3 21 0 17 -12 -8 -20 22 -32 40
-17 12 10 15 8 18 -11 2 -16 11 -24 28 -26 14 -2 29 -10 33 -18 13 -23 27 -16
25 11 -2 16 -7 24 -15 21 -14 -6 -18 20 -5 28 12 7 62 -42 63 -62 1 -9 3 -39
5 -66 4 -44 3 -48 -12 -35 -14 12 -19 10 -40 -15 -17 -19 -36 -29 -60 -31 -43
-3 -56 -19 -43 -52 13 -35 12 -41 -13 -49 -13 -4 -36 -17 -53 -29 -16 -12 -56
-27 -89 -34 -32 -6 -64 -18 -71 -27 -9 -13 -20 -15 -47 -10 -19 3 -42 4 -51 0
-14 -5 -14 -8 4 -27 17 -18 31 -21 99 -22 74 -1 79 1 85 22 6 26 45 33 45 8 0
-24 38 -37 97 -33 44 2 58 -1 66 -14 14 -21 1 -36 -15 -20 -16 16 -95 16 -101
0 -2 -7 5 -23 16 -35 26 -29 14 -44 -61 -78 l-57 -26 25 -19 c37 -28 107 -30
147 -4 12 8 29 14 36 14 8 0 22 9 31 19 10 11 31 25 47 31 20 9 29 20 29 35 0
12 11 34 24 50 13 15 26 44 29 64 3 20 6 42 8 50 9 32 -22 19 -40 -18 -12 -22
-25 -42 -29 -45 -11 -6 -62 16 -62 27 0 4 -9 7 -21 7 -12 0 -17 4 -14 11 4 6
19 9 34 7 14 -1 37 5 51 15 13 9 30 17 36 17 14 0 25 25 19 43 -3 6 -19 21
-35 32 -17 11 -30 23 -30 28 0 4 -15 7 -32 7 l-33 -1 33 -28 c34 -29 40 -49
20 -69 -19 -19 -28 -14 -28 12 0 14 -11 37 -24 53 l-24 29 23 22 c12 12 26 22
30 22 3 0 14 7 22 16 10 10 18 12 22 5 4 -5 18 -14 31 -19 22 -8 27 -4 52 34
15 24 25 51 22 59 -4 10 0 15 15 15 12 0 24 -8 28 -17 3 -10 13 -26 21 -35 12
-14 12 -20 2 -33 -20 -24 -6 -27 20 -5 13 11 26 20 30 20 4 0 10 14 14 31 5
25 1 37 -19 57 -14 13 -25 31 -25 38 0 8 -11 14 -27 14 -33 0 -113 46 -113 65
0 8 7 15 15 15 8 0 15 -7 15 -15 0 -15 33 -37 63 -42 10 -2 36 6 58 18 38 19
40 23 37 57 -3 31 0 37 17 37 13 0 19 -5 16 -15 -3 -8 -4 -27 -3 -41 1 -31
-22 -55 -58 -62 -21 -4 -20 -4 7 -6 18 0 36 -8 41 -17 9 -17 59 -26 68 -13 3
5 -4 9 -15 9 -23 0 -26 11 -12 38 5 9 12 25 15 36 4 12 13 17 25 13 14 -3 23
5 35 30 10 21 28 39 46 46 25 9 30 18 36 55 8 50 -2 136 -16 140 -5 2 -7 9 -4
17 3 7 -3 18 -14 24 -12 6 -19 20 -18 38 1 23 7 29 39 36 55 13 45 47 -15 47
-11 0 -22 8 -25 20 -6 22 -33 28 -33 8 0 -7 -9 6 -20 30 -13 29 -25 42 -40 42
-11 0 -20 6 -20 13 0 18 -61 83 -85 90 -11 4 -33 18 -49 32 -27 23 -31 24 -52
10 -25 -16 -51 -11 -56 11 -2 12 -6 13 -15 3z m-1343 -244 c0 -8 -4 -15 -9
-15 -13 0 -22 16 -14 24 11 11 23 6 23 -9z m243 -25 c15 0 18 -3 11 -10 -13
-13 -94 -2 -94 13 0 5 13 7 31 3 17 -3 41 -6 52 -6z m-76 -132 c-3 -8 -6 -5
-6 6 -1 11 2 17 5 13 3 -3 4 -12 1 -19z m-57 -183 c0 -2 -9 -9 -19 -14 -14 -8
-20 -7 -25 4 -4 11 2 15 19 15 14 0 25 -2 25 -5z m-20 -95 c0 -5 -6 -10 -14
-10 -8 0 -18 5 -21 10 -3 6 3 10 14 10 12 0 21 -4 21 -10z m630 -15 c11 -13
10 -22 -4 -51 -13 -29 -21 -35 -43 -32 -21 2 -30 11 -36 35 -5 18 -7 39 -4 47
8 21 70 21 87 1z m240 -70 c0 -14 8 -29 20 -35 11 -6 20 -16 20 -23 0 -16 -36
-47 -45 -39 -4 4 -4 -4 0 -16 12 -39 -28 -72 -85 -72 -25 0 -51 -5 -56 -10 -7
-7 -28 -3 -65 12 -66 26 -85 42 -94 75 -9 38 8 50 42 28 15 -10 43 -20 63 -22
45 -4 140 15 140 29 0 6 10 19 21 29 18 16 20 21 8 35 -11 13 -10 17 2 25 23
14 29 11 29 -16z"/>
<path d="M4310 5089 c0 -5 5 -7 10 -4 6 3 10 8 10 11 0 2 -4 4 -10 4 -5 0 -10
-5 -10 -11z"/>
<path d="M4093 5971 c-18 -9 -33 -21 -33 -28 0 -21 21 -26 39 -9 10 9 23 16
29 16 7 0 12 5 12 10 0 6 7 10 16 10 8 0 12 5 9 10 -8 14 -34 10 -72 -9z"/>
<path d="M3520 5961 c-22 -6 -23 -8 -7 -14 30 -11 47 -8 47 8 0 16 -2 17 -40
6z"/>
<path d="M5915 5960 c3 -5 13 -10 21 -10 8 0 14 5 14 10 0 6 -9 10 -21 10 -11
0 -17 -4 -14 -10z"/>
<path d="M3773 5940 c1 -11 7 -20 14 -20 7 0 13 9 13 20 0 11 -6 20 -14 20 -9
0 -14 -9 -13 -20z"/>
<path d="M3824 5946 c-4 -10 -2 -22 4 -28 8 -8 13 -7 18 6 4 10 2 22 -4 28 -8
8 -13 7 -18 -6z"/>
<path d="M3353 5906 c-15 -13 -25 -28 -20 -32 12 -12 57 18 57 38 0 23 -3 23
-37 -6z"/>
<path d="M3747 5884 c-12 -12 3 -22 23 -17 11 3 17 9 14 14 -6 10 -28 12 -37
3z"/>
<path d="M2633 5826 c-6 -8 -9 -16 -6 -19 9 -10 33 4 33 19 0 18 -11 17 -27 0z"/>
<path d="M3197 5734 c-11 -11 3 -24 18 -18 8 4 12 10 9 15 -6 11 -18 12 -27 3z"/>
<path d="M5710 5624 c0 -14 4 -23 10 -19 6 3 10 15 10 26 0 10 -4 19 -10 19
-5 0 -10 -12 -10 -26z"/>
<path d="M5773 5631 c-13 -22 -8 -31 19 -31 13 0 18 7 18 25 0 30 -20 33 -37
6z"/>
<path d="M2614 5599 c-3 -6 0 -15 7 -20 22 -14 29 -11 29 11 0 21 -24 27 -36
9z"/>
<path d="M3510 5560 c0 -5 7 -10 15 -10 8 0 15 5 15 10 0 6 -7 10 -15 10 -8 0
-15 -4 -15 -10z"/>
<path d="M4503 5023 c-38 -5 -74 -49 -48 -59 9 -4 23 1 33 9 9 8 33 17 52 19
23 2 35 8 35 18 0 16 -20 20 -72 13z"/>
<path d="M4310 4941 c0 -5 9 -7 20 -4 11 3 20 7 20 9 0 2 -9 4 -20 4 -11 0
-20 -4 -20 -9z"/>
<path d="M2750 4930 c0 -5 7 -10 16 -10 8 0 12 5 9 10 -3 6 -10 10 -16 10 -5
0 -9 -4 -9 -10z"/>
<path d="M4388 4589 c-27 -15 -21 -29 13 -29 23 0 30 4 27 17 -4 21 -18 25
-40 12z"/>
<path d="M2874 4173 c-3 -10 -12 -32 -20 -50 -15 -34 -10 -63 12 -63 19 0 32
28 35 79 4 46 -15 70 -27 34z"/>
<path d="M2932 4125 c0 -16 2 -22 5 -12 2 9 2 23 0 30 -3 6 -5 -1 -5 -18z"/>
<path d="M2923 4044 c-7 -15 -10 -31 -7 -35 2 -5 -5 -18 -16 -29 -15 -15 -19
-27 -14 -48 14 -57 48 -70 64 -24 6 15 15 35 20 45 11 18 8 37 -12 90 -13 34
-20 34 -35 1z"/>
<path d="M2704 4019 c-3 -6 -1 -16 5 -22 8 -8 11 -5 11 11 0 24 -5 28 -16 11z"/>
<path d="M2753 3955 c-7 -8 -13 -19 -13 -25 0 -19 17 -10 28 15 13 27 4 33
-15 10z"/>
<path d="M3180 3511 c0 -17 19 -22 55 -15 50 9 44 24 -10 24 -25 0 -45 -4 -45
-9z"/>
<path d="M3280 3409 c0 -5 5 -7 10 -4 6 3 10 8 10 11 0 2 -4 4 -10 4 -5 0 -10
-5 -10 -11z"/>
<path d="M3505 3180 c3 -5 8 -10 11 -10 2 0 4 5 4 10 0 6 -5 10 -11 10 -5 0
-7 -4 -4 -10z"/>
<path d="M3850 2840 c0 -5 5 -10 10 -10 6 0 10 5 10 10 0 6 -4 10 -10 10 -5 0
-10 -4 -10 -10z"/>
<path d="M6420 2811 c0 -12 6 -21 16 -21 9 0 14 7 12 17 -5 25 -28 28 -28 4z"/>
<path d="M3780 2750 c0 -5 5 -10 10 -10 6 0 10 5 10 10 0 6 -4 10 -10 10 -5 0
-10 -4 -10 -10z"/>
<path d="M5650 2740 c0 -5 7 -7 15 -4 8 4 15 8 15 10 0 2 -7 4 -15 4 -8 0 -15
-4 -15 -10z"/>
<path d="M3111 2733 c0 -5 9 -21 19 -38 11 -16 29 -47 40 -67 11 -21 25 -38
30 -38 19 0 10 37 -14 59 -14 13 -32 39 -41 57 -14 30 -36 47 -34 27z"/>
<path d="M3830 2706 c0 -21 17 -29 48 -21 26 6 26 7 8 21 -26 18 -56 18 -56 0z"/>
<path d="M3920 2671 c0 -11 31 -24 39 -16 3 3 -1 10 -9 15 -19 12 -30 12 -30
1z"/>
<path d="M3175 2572 c-12 -13 -3 -32 15 -32 22 0 40 -34 40 -75 0 -13 10 -29
25 -39 24 -16 25 -15 31 10 5 18 0 34 -15 55 -12 16 -25 39 -30 53 -9 22 -53
41 -66 28z"/>
<path d="M5855 2320 c3 -5 15 -10 26 -10 10 0 19 5 19 10 0 6 -12 10 -26 10
-14 0 -23 -4 -19 -10z"/>
<path d="M5825 2300 c-3 -5 1 -10 10 -10 9 0 13 5 10 10 -3 6 -8 10 -10 10 -2
0 -7 -4 -10 -10z"/>
<path d="M5159 2253 c-12 -15 -12 -16 4 -10 10 4 23 7 28 7 5 0 9 5 9 10 0 16
-26 12 -41 -7z"/>
<path d="M4900 2146 c0 -9 7 -16 16 -16 17 0 14 22 -4 28 -7 2 -12 -3 -12 -12z"/>
<path d="M4352 2113 c2 -14 8 -28 14 -30 16 -5 26 40 11 49 -21 14 -28 9 -25
-19z"/>
<path d="M5038 2093 c6 -2 18 -2 25 0 6 3 1 5 -13 5 -14 0 -19 -2 -12 -5z"/>
<path d="M3480 2026 c0 -24 34 -76 51 -76 17 0 9 37 -11 55 -11 10 -20 24 -20
32 0 7 -4 13 -10 13 -5 0 -10 -11 -10 -24z"/>
<path d="M4377 1973 c3 -49 11 -82 19 -89 9 -7 14 -31 14 -64 0 -48 18 -105
45 -140 6 -8 19 -40 28 -71 10 -31 24 -62 32 -69 8 -7 15 -23 15 -35 0 -28 17
-62 52 -103 20 -24 33 -31 57 -29 37 2 39 17 7 60 -13 18 -26 46 -29 62 -12
71 -36 150 -46 153 -6 2 -11 28 -11 58 0 31 -5 65 -11 76 -8 16 -8 22 2 28 9
6 10 15 1 37 -6 15 -13 52 -16 82 -5 50 -27 91 -48 91 -6 0 -7 -23 -3 -54 6
-44 4 -54 -10 -60 -9 -3 -21 -4 -25 -1 -5 3 -11 1 -15 -5 -11 -17 -23 -11 -18
9 3 10 -1 29 -7 41 -7 13 -12 40 -12 62 1 26 -4 38 -13 38 -11 0 -12 -16 -8
-77z m84 -115 c1 -13 1 -27 0 -31 -2 -11 25 -37 38 -37 17 0 13 -40 -5 -47
-19 -7 -36 15 -28 40 3 11 0 17 -10 17 -15 0 -32 53 -21 70 11 17 25 11 26
-12z m82 -193 c-5 -13 -23 -22 -23 -11 0 15 14 35 21 31 4 -3 6 -12 2 -20z"/>
<path d="M4818 2003 c7 -3 16 -2 19 1 4 3 -2 6 -13 5 -11 0 -14 -3 -6 -6z"/>
<path d="M3646 1837 c3 -10 9 -15 12 -12 3 3 0 11 -7 18 -10 9 -11 8 -5 -6z"/>
<path d="M3506 1655 c-3 -8 -1 -15 4 -15 6 0 10 7 10 15 0 8 -2 15 -4 15 -2 0
-6 -7 -10 -15z"/>
<path d="M6192 1335 c-13 -29 -13 -29 21 -12 20 11 23 17 15 25 -17 17 -23 15
-36 -13z"/>
<path d="M5215 920 c-4 -6 7 -10 27 -10 25 0 29 3 18 10 -19 13 -37 13 -45 0z"/>
<path d="M5448 673 c6 -2 18 -2 25 0 6 3 1 5 -13 5 -14 0 -19 -2 -12 -5z"/>
<path d="M5710 670 c0 -13 20 -13 40 0 12 8 9 10 -12 10 -16 0 -28 -4 -28 -10z"/>
<path d="M5598 663 c7 -3 16 -2 19 1 4 3 -2 6 -13 5 -11 0 -14 -3 -6 -6z"/>
</g>
</svg>
