<?xml version="1.0" standalone="no"?>
<!DOCTYPE svg PUBLIC "-//W3C//DTD SVG 20010904//EN"
 "http://www.w3.org/TR/2001/REC-SVG-20010904/DTD/svg10.dtd">
<svg version="1.0" xmlns="http://www.w3.org/2000/svg"
 width="329.000000pt" height="368.000000pt" viewBox="0 0 329.000000 368.000000"
 preserveAspectRatio="xMidYMid meet">

<g transform="translate(0.000000,368.000000) scale(0.100000,-0.100000)"
fill="#080808" stroke="none">
<path d="M0 1840 l0 -1840 680 0 679 0 15 27 c7 16 17 44 21 63 4 19 17 67 30
105 31 95 37 125 25 125 -5 0 -13 12 -16 26 -5 18 -10 22 -17 15 -8 -8 -8 -14
1 -23 7 -7 12 -17 12 -23 -1 -5 -14 6 -30 25 -20 22 -30 29 -30 18 0 -9 -27
10 -68 51 -37 36 -64 69 -60 72 4 3 -5 18 -22 34 -16 15 -27 32 -23 37 3 6 -5
23 -17 40 -12 16 -23 36 -24 44 -1 7 -9 21 -18 31 -8 10 -17 25 -20 33 -3 8
-7 10 -11 4 -3 -6 4 -21 17 -35 12 -13 21 -29 19 -35 -2 -6 8 -23 22 -38 29
-31 32 -45 9 -42 -20 3 -74 66 -74 87 0 8 -4 19 -9 25 -5 5 -12 20 -16 33 -6
20 -4 23 9 18 10 -4 15 -3 11 2 -3 5 0 11 7 13 7 3 12 21 12 41 0 48 12 37 32
-29 8 -29 17 -54 20 -54 4 0 1 18 -14 80 -5 20 -6 56 -2 80 l6 45 9 -60 c4
-33 16 -85 26 -115 23 -69 23 -77 1 -57 -10 10 -21 17 -24 17 -7 0 47 -101 79
-149 13 -19 23 -44 23 -56 0 -12 8 -29 18 -38 24 -22 35 -22 23 0 -24 45 -41
108 -43 156 -1 44 -2 46 -5 14 -5 -47 -25 -44 -31 4 -2 19 -12 59 -22 89 -10
30 -21 86 -26 125 -6 64 -5 69 10 56 14 -12 16 -11 16 8 0 27 14 27 28 -1 25
-48 96 -132 113 -133 9 0 35 -29 36 -40 1 -5 7 -11 14 -14 7 -2 9 1 5 8 -4 6
-2 11 3 11 6 0 11 -6 12 -12 0 -7 5 -4 10 7 9 18 9 18 5 -4 -5 -26 -2 -31 77
-113 31 -33 57 -64 57 -69 0 -5 12 -4 26 1 29 11 134 9 134 -2 0 -5 5 -8 10
-8 6 0 10 14 10 30 0 28 2 30 39 30 48 0 59 -12 26 -30 -24 -13 -24 -15 -8
-32 19 -22 6 -23 -22 -3 -18 14 -20 13 -37 -22 -10 -20 -18 -44 -18 -53 0 -9
-5 -21 -11 -27 -6 -6 -9 -21 -7 -34 3 -17 11 -4 27 48 13 40 26 73 29 73 17
-1 36 -21 27 -28 -15 -11 -45 -80 -45 -104 0 -22 10 -20 14 4 5 31 18 58 27
58 6 0 7 6 4 13 -4 6 5 -1 19 -16 22 -24 25 -35 20 -63 -4 -22 -2 -34 5 -34 6
0 11 10 11 23 l1 22 18 -22 c11 -13 22 -45 26 -73 4 -27 11 -52 16 -56 5 -3 9
-16 9 -29 0 -13 6 -26 13 -29 9 -5 9 -7 -1 -12 -6 -3 -10 -10 -7 -14 3 -5 -4
-35 -15 -67 -11 -31 -20 -61 -20 -65 0 -5 52 -7 116 -6 l115 3 18 53 c10 29
15 55 11 57 -5 3 -13 -9 -19 -25 -5 -17 -11 -30 -13 -30 -9 0 -6 45 4 51 6 4
12 21 13 39 2 17 8 37 15 43 8 9 10 5 6 -15 -2 -15 -7 -32 -11 -38 -3 -5 -1
-10 5 -10 6 0 13 15 17 33 7 31 7 31 13 7 5 -22 -12 -96 -35 -152 -7 -17 10
-18 268 -18 254 0 276 1 280 17 4 17 5 17 6 1 1 -21 21 -24 21 -4 0 8 9 18 20
21 11 3 20 12 20 18 0 7 4 6 11 -3 8 -12 10 -12 8 5 -3 36 1 40 16 18 9 -12
12 -29 8 -40 -7 -17 -6 -17 12 1 18 18 19 18 40 -6 20 -23 24 -24 48 -11 15 7
27 9 27 4 0 -5 -6 -12 -12 -14 -7 -3 74 -6 180 -6 l192 -1 0 609 0 609 -92 5
c-51 4 -183 5 -294 4 -191 -2 -200 -1 -190 16 8 13 19 17 46 13 19 -3 146 -8
283 -11 l247 -6 0 49 0 49 -72 7 c-40 3 -158 6 -263 6 -104 1 -201 2 -215 4
-14 2 -36 5 -50 6 -14 2 -4 6 25 9 28 4 53 5 56 4 4 -1 122 -4 263 -5 l256 -3
0 48 0 47 -52 2 c-53 2 -114 3 -320 6 -81 2 -106 5 -103 15 6 13 103 14 343 1
l132 -7 0 52 0 51 -147 2 c-82 1 -188 2 -237 3 -62 0 -91 4 -93 12 -4 10 44
12 224 7 125 -3 234 -7 241 -9 9 -4 12 209 12 1040 l0 1045 -1645 0 -1645 0 0
-1840z m1775 1237 c-8 -4 -25 -5 -38 -1 -20 6 -21 5 -7 -11 14 -17 13 -18 -4
-12 -16 6 -17 5 -6 -8 7 -9 18 -14 25 -12 6 3 19 -1 29 -9 11 -7 22 -11 26 -9
4 2 21 0 38 -5 19 -5 34 -5 37 1 9 13 65 11 65 -2 0 -8 6 -7 17 2 15 12 16 12
10 -3 -3 -10 -3 -17 1 -17 23 4 34 -5 52 -41 21 -42 33 -52 25 -22 -3 9 3 0
13 -21 10 -22 26 -40 39 -43 12 -3 25 -15 29 -26 3 -11 8 -17 11 -14 3 3 11 0
17 -7 16 -16 29 -50 16 -42 -23 14 3 -42 29 -63 14 -11 14 -12 -3 -10 -10 2
-20 -3 -22 -10 -1 -7 0 -8 2 -3 3 5 14 7 24 4 18 -5 26 -32 21 -65 0 -5 7 -8
16 -9 15 0 15 -2 -2 -9 -19 -8 -19 -9 3 -9 13 -1 21 -5 18 -10 -10 -15 5 -43
20 -37 8 3 11 0 7 -10 -3 -8 0 -21 7 -29 7 -8 9 -15 6 -15 -7 0 -57 30 -66 40
-10 11 -109 41 -136 42 -19 0 -52 -15 -91 -43 -57 -39 -63 -46 -63 -78 0 -20
-8 -66 -17 -103 -15 -59 -16 -79 -5 -165 7 -54 12 -116 12 -138 0 -22 5 -56
10 -75 17 -56 24 -160 11 -160 -6 0 -10 -3 -10 -7 3 -19 -2 -33 -12 -33 -5 0
-7 5 -3 12 5 8 2 9 -12 3 -10 -5 -30 -8 -44 -7 -14 1 -60 5 -103 8 -72 5 -78
7 -74 25 3 10 2 21 -3 24 -10 6 -21 -64 -14 -93 8 -27 49 -40 75 -23 23 14 83
15 74 1 -3 -5 0 -10 7 -10 9 0 9 -3 -2 -10 -13 -8 -13 -10 2 -10 15 0 17 -8
14 -54 -3 -48 -2 -54 14 -53 10 1 16 7 13 14 -3 7 2 13 10 13 8 0 17 6 20 13
5 13 27 -35 27 -59 0 -15 -3 -16 -105 -18 -38 -1 -97 -5 -130 -9 -80 -10 -100
2 -60 38 42 36 45 38 98 69 26 15 47 32 47 38 0 6 7 8 15 4 9 -3 15 0 15 9 0
19 -20 19 -47 0 -16 -12 -22 -12 -26 -2 -3 7 -6 5 -6 -6 -1 -10 -7 -17 -14
-15 -6 2 -26 -7 -44 -20 -17 -12 -41 -22 -53 -22 -14 0 -20 -5 -17 -13 4 -10
-2 -13 -19 -9 -13 2 -24 0 -24 -6 0 -6 -17 -21 -37 -33 -21 -13 -42 -29 -46
-36 -4 -7 -21 -13 -37 -13 -17 0 -30 -4 -30 -10 0 -5 6 -7 14 -4 8 3 17 1 20
-4 8 -14 -21 -23 -50 -16 -15 4 -24 2 -24 -6 0 -6 -5 -8 -12 -4 -7 4 -8 3 -4
-5 6 -9 11 -9 22 0 19 15 25 8 31 -37 4 -28 2 -36 -9 -32 -7 3 -19 0 -25 -7
-10 -11 -7 -17 12 -29 14 -9 25 -12 25 -7 0 5 -7 12 -16 15 -9 4 -14 9 -10 13
3 4 17 -4 31 -17 14 -13 25 -20 25 -16 0 4 9 2 21 -4 11 -7 18 -14 16 -17 -3
-3 -12 -1 -19 3 -19 12 -48 15 -48 5 0 -5 6 -11 13 -14 6 -2 8 -8 4 -13 -5 -5
-14 -1 -22 9 -8 11 -19 15 -31 10 -17 -6 -18 -5 -5 11 13 16 13 17 -5 14 -11
-2 -18 2 -16 10 1 7 -9 12 -25 13 l-28 1 25 8 c24 8 23 8 -7 9 -25 1 -31 5
-27 16 5 11 2 13 -10 9 -15 -6 -18 2 -15 34 1 15 45 0 71 -25 15 -15 30 -24
34 -21 8 8 -55 53 -91 65 -16 6 -29 16 -28 22 2 6 -4 11 -12 11 -11 0 -15 12
-15 45 0 25 5 45 10 45 6 0 10 7 10 15 0 8 5 15 10 15 6 0 10 4 10 9 0 5 -8 7
-19 4 -11 -3 -21 2 -25 13 -6 16 -8 16 -16 4 -6 -9 -10 -10 -10 -3 0 6 5 15
10 18 5 3 10 12 10 18 0 7 -4 6 -10 -3 -8 -12 -10 -11 -10 8 0 12 -5 22 -11
22 -5 0 -7 5 -4 10 3 6 1 10 -4 10 -6 0 -11 -5 -11 -12 0 -6 -3 -9 -6 -6 -3 4
1 20 10 36 13 26 13 31 1 36 -10 3 -12 0 -8 -11 5 -13 2 -15 -11 -10 -10 4
-22 7 -27 7 -5 0 -9 5 -9 11 0 5 4 8 9 4 5 -3 12 -1 16 5 3 5 -3 10 -14 10
-27 0 -34 15 -20 41 9 17 13 19 20 8 6 -10 9 -8 9 9 0 12 -4 22 -10 22 -5 0
-10 7 -10 15 0 8 5 15 10 15 6 0 4 14 -4 35 -8 19 -11 35 -6 35 5 0 8 6 6 13
-15 46 -16 68 -4 61 8 -4 10 -3 5 2 -5 5 -14 9 -20 9 -7 0 -11 8 -9 16 1 9 -9
28 -22 42 -14 15 -21 27 -16 27 15 0 12 38 -2 43 -10 3 -10 7 -1 17 6 7 9 19
6 28 -4 9 -2 13 4 9 6 -4 10 1 9 11 0 9 5 16 12 14 8 -1 11 1 8 6 -3 4 4 21
15 38 10 16 19 37 19 47 0 9 4 17 10 17 6 0 6 -9 0 -25 -5 -14 -7 -25 -5 -25
3 0 10 11 15 25 7 18 3 43 -15 97 l-23 73 20 55 c11 30 22 71 25 90 5 32 63
133 84 146 5 3 9 14 9 25 0 11 5 17 10 14 6 -3 10 2 10 12 0 15 2 16 10 3 8
-13 11 -11 16 7 4 13 10 21 13 18 9 -5 81 42 97 63 7 9 16 12 24 7 10 -6 12
-4 6 10 -5 15 -4 16 8 6 13 -11 15 -9 11 8 -3 17 -1 19 20 11 17 -6 25 -5 28
4 4 10 -1 12 -16 9 -21 -4 -21 -4 -4 11 11 8 25 12 33 9 8 -3 14 -1 14 5 0 6
-6 12 -12 14 -7 3 36 5 95 5 59 0 110 2 112 5 2 2 20 4 40 4 25 0 31 -3 20 -9z
m338 -191 c4 -10 1 -13 -9 -9 -15 6 -19 23 -5 23 5 0 11 -7 14 -14z m104 -158
c-3 -7 -5 -2 -5 12 0 14 2 19 5 13 2 -7 2 -19 0 -25z m30 -20 c-3 -8 -6 -5 -6
6 -1 11 2 17 5 13 3 -3 4 -12 1 -19z m410 -144 c-3 -3 -12 -4 -19 -1 -8 3 -5
6 6 6 11 1 17 -2 13 -5z m116 -11 c-13 -2 -33 -2 -45 0 -13 2 -3 4 22 4 25 0
35 -2 23 -4z m-578 -185 c15 -7 21 -14 15 -18 -7 -5 -2 -18 14 -37 l25 -30
-41 7 c-23 5 -49 7 -58 5 -60 -10 -130 -15 -130 -8 0 4 20 27 44 51 47 45 81
53 131 30z m-175 -118 c-6 -11 -16 -17 -25 -14 -27 11 -15 34 17 34 15 0 17
-3 8 -20z m160 -34 c-14 -14 -22 -2 -14 18 5 14 9 15 15 4 4 -7 4 -17 -1 -22z
m558 -3 c-16 -2 -40 -2 -55 0 -16 2 -3 4 27 4 30 0 43 -2 28 -4z m77 -3 c18
-8 17 -9 -7 -9 -15 -1 -30 4 -33 9 -7 12 12 12 40 0z m-695 -42 l65 -14 -40
-7 c-22 -4 -53 -7 -69 -7 -24 0 -27 -2 -16 -15 7 -8 16 -13 20 -10 4 3 24 -7
45 -20 20 -14 41 -22 47 -19 6 4 8 3 5 -2 -3 -6 -2 -16 4 -24 7 -12 9 -12 9
-1 0 10 3 11 14 2 11 -9 15 -8 20 5 8 20 15 15 21 -14 2 -11 -3 -23 -11 -26
-8 -3 -14 -12 -14 -21 0 -8 -3 -14 -7 -14 -5 1 -15 1 -23 0 -13 -1 -13 -2 0
-11 12 -8 11 -11 -9 -16 l-24 -7 24 -19 c14 -12 17 -18 8 -15 -20 7 -39 -11
-32 -29 3 -8 -2 -17 -11 -20 -9 -3 -13 -10 -10 -15 3 -5 0 -9 -5 -9 -20 0 -11
-28 11 -33 18 -5 19 -8 8 -21 -8 -11 -9 -16 -1 -16 6 0 11 -4 11 -10 0 -5 -6
-7 -14 -4 -19 7 -30 -14 -16 -31 8 -10 8 -15 0 -20 -6 -4 -9 -14 -6 -22 4 -9
1 -13 -6 -11 -7 3 -16 18 -19 34 -4 16 -7 21 -8 12 0 -10 -6 -18 -12 -18 -5 0
-7 5 -3 12 5 8 2 9 -10 5 -12 -5 -19 0 -25 16 -5 12 -5 24 -1 27 9 5 0 55 -22
128 -11 37 -10 44 2 52 10 7 11 10 3 10 -9 0 -11 11 -8 35 2 20 1 34 -3 31 -4
-2 -8 7 -9 21 -1 19 1 22 8 12 5 -8 9 -9 9 -3 0 5 -4 14 -9 20 -15 15 -30 82
-24 105 6 23 8 23 133 -3z m150 -128 c0 -5 -5 -10 -11 -10 -5 0 -7 5 -4 10 3
6 8 10 11 10 2 0 4 -4 4 -10z m-33 -62 c-3 -7 -5 -2 -5 12 0 14 2 19 5 13 2
-7 2 -19 0 -25z m558 14 c-3 -3 -11 0 -18 7 -9 10 -8 11 6 5 10 -3 15 -9 12
-12z m-1702 -92 c-7 -28 -13 -25 -13 6 0 14 4 23 9 20 5 -3 7 -15 4 -26z
m1731 -9 c16 -17 16 -18 -5 -17 -13 1 -23 8 -25 19 -3 22 9 22 30 -2z m-639
-1 c3 -5 1 -10 -4 -10 -6 0 -11 5 -11 10 0 6 2 10 4 10 3 0 8 -4 11 -10z m590
0 c3 -5 1 -10 -4 -10 -6 0 -11 5 -11 10 0 6 2 10 4 10 3 0 8 -4 11 -10z m120
-20 c10 -19 11 -30 5 -30 -6 0 -9 -4 -5 -10 3 -5 11 -7 18 -5 7 3 20 -11 29
-29 14 -29 14 -35 3 -40 -9 -3 -12 0 -8 10 6 15 -13 19 -43 7 -16 -6 -16 -7 2
-14 17 -7 17 -8 2 -8 -10 -1 -18 -6 -18 -12 0 -5 5 -7 10 -4 6 3 10 1 10 -5 0
-18 44 -30 53 -14 4 8 13 14 20 14 7 0 6 -4 -3 -10 -12 -8 -12 -10 2 -15 25
-10 29 -32 7 -38 -17 -4 -18 -3 -8 9 9 11 7 14 -15 14 -15 0 -37 5 -48 11 -18
9 -20 9 -15 -4 3 -9 -1 -18 -10 -21 -12 -5 -14 -1 -10 15 5 20 5 20 -13 4 -12
-11 -20 -13 -25 -6 -3 6 -1 11 5 11 7 0 5 7 -4 16 -20 19 -20 28 -2 21 18 -7
36 12 35 38 -1 16 -2 17 -6 3 -2 -10 -9 -18 -14 -18 -6 0 -7 5 -4 10 4 6 1 18
-6 26 -11 13 -9 15 12 11 13 -2 32 -7 41 -11 10 -5 23 -6 30 -3 8 4 5 8 -9 12
-13 4 -23 12 -23 17 0 5 -5 6 -10 3 -17 -10 -50 5 -49 23 0 11 3 12 6 5 2 -7
9 -13 14 -13 6 0 7 5 3 12 -4 7 -3 8 5 4 6 -4 9 -12 6 -17 -4 -5 -2 -9 4 -9
19 0 22 20 7 36 -18 17 -21 34 -6 34 5 0 16 -13 25 -30z m-85 -45 c0 -23 -14
-18 -26 10 -11 23 -10 24 7 14 10 -5 19 -16 19 -24z m-1736 9 c3 -8 2 -12 -4
-9 -6 3 -10 10 -10 16 0 14 7 11 14 -7z m1096 -4 c0 -5 -8 -10 -17 -10 -15 0
-16 2 -3 10 19 12 20 12 20 0z m590 -36 c0 -8 5 -12 10 -9 11 7 14 -8 3 -18
-7 -8 -32 23 -33 41 0 7 5 10 10 7 6 -3 10 -13 10 -21z m70 -30 c0 -8 -5 -12
-10 -9 -6 4 -8 11 -5 16 9 14 15 11 15 -7z m-35 -14 c-3 -5 -1 -10 4 -10 6 0
11 -5 11 -11 0 -8 -5 -8 -15 1 -17 14 -20 30 -4 30 5 0 7 -4 4 -10z m159 -15
c-7 -18 -30 -20 -40 -3 -5 8 -2 9 9 5 9 -3 19 -2 22 3 9 15 15 12 9 -5z m76
-15 c8 -5 12 -11 9 -14 -3 -3 -14 1 -25 9 -21 16 -8 20 16 5z m-1856 -26 c3
-8 2 -12 -4 -9 -6 3 -10 10 -10 16 0 14 7 11 14 -7z m1621 7 c3 -5 1 -12 -5
-16 -5 -3 -10 1 -10 9 0 18 6 21 15 7z m130 -21 c3 -5 1 -10 -4 -10 -6 0 -11
5 -11 10 0 6 2 10 4 10 3 0 8 -4 11 -10z m-787 -67 c2 -20 6 -41 9 -47 4 -6 0
-5 -9 2 -10 8 -14 21 -10 34 4 16 2 19 -8 13 -10 -6 -12 -4 -7 8 3 10 2 17 -3
17 -6 0 -10 4 -10 9 0 5 8 7 18 4 12 -3 19 -15 20 -40z m657 -13 c3 -5 2 -10
-4 -10 -5 0 -13 5 -16 10 -3 6 -2 10 4 10 5 0 13 -4 16 -10z m-976 -126 c91
-5 127 -10 112 -16 -20 -7 -21 -9 -7 -24 9 -8 16 -21 16 -27 0 -8 -3 -7 -9 2
-7 11 -15 11 -43 2 -19 -6 -42 -9 -51 -5 -10 4 -17 1 -17 -6 0 -10 -3 -10 -15
0 -8 6 -20 10 -27 7 -8 -4 -7 -6 5 -6 9 -1 17 -6 17 -11 0 -12 -48 -3 -67 13
-9 6 -13 6 -13 -3 0 -7 -6 -10 -14 -7 -8 3 -20 -2 -28 -10 -11 -14 -11 -16 3
-11 11 4 15 0 14 -13 -2 -25 -11 -33 -21 -18 -5 8 -3 10 6 4 9 -5 11 -4 6 4
-4 6 -12 9 -17 5 -5 -3 -6 -10 -3 -16 4 -6 0 -14 -7 -19 -11 -6 -8 -9 8 -9 27
0 39 -17 16 -22 -10 -2 19 -2 65 0 110 6 198 -20 185 -54 -3 -8 1 -14 8 -14 8
-1 3 -7 -11 -15 -17 -10 -20 -14 -9 -15 9 0 23 -8 30 -17 12 -15 12 -16 -4
-10 -14 5 -16 2 -13 -17 2 -12 -1 -23 -7 -24 -14 -2 -49 -9 -89 -18 -47 -11
-78 3 -79 34 l-1 27 -9 -30 c-7 -24 -5 -33 8 -42 10 -8 12 -13 5 -13 -7 0 -20
9 -29 20 -16 19 -18 19 -25 3 -6 -17 -7 -17 -7 0 -1 10 -5 16 -10 13 -5 -3
-22 1 -37 9 -18 9 -32 11 -39 5 -7 -6 -17 -2 -29 11 -17 20 -17 21 3 14 16 -5
20 -3 15 9 -3 9 -1 16 5 16 6 0 11 4 11 9 0 5 -10 7 -22 3 -17 -4 -20 -2 -15
11 4 10 2 17 -3 17 -6 0 -10 -6 -10 -12 0 -10 -2 -10 -8 -1 -4 7 -19 15 -32
17 -14 2 -27 5 -30 6 -3 0 4 7 14 15 17 13 21 12 32 -3 8 -9 14 -12 14 -5 0 6
-5 15 -11 18 -6 4 -8 13 -5 21 8 21 -4 17 -26 -8 -14 -17 -21 -19 -27 -10 -4
7 -15 10 -24 6 -9 -3 -17 -2 -17 4 0 14 26 22 37 11 6 -6 16 -2 28 11 10 11
13 20 7 20 -6 0 -12 -6 -15 -12 -3 -10 -7 -10 -17 -1 -10 9 -18 8 -37 -4 -21
-14 -23 -14 -17 1 6 15 23 21 53 17 8 -2 10 2 5 10 -5 9 1 10 25 6 26 -6 29
-4 19 7 -7 8 -15 12 -17 10 -8 -8 -31 19 -24 29 4 6 0 8 -10 4 -8 -3 -20 0
-26 7 -11 14 -5 26 13 26 6 0 4 -5 -4 -10 -13 -8 -12 -10 3 -10 20 0 23 20 5
38 -6 6 -10 13 -7 15 2 2 20 13 39 25 38 24 17 23 309 6z m286 7 c-3 -5 2 -11
10 -13 14 -3 14 -5 1 -23 -14 -20 -15 -20 -50 -1 -39 21 -40 36 -1 31 14 -1
25 2 25 6 0 5 5 9 11 9 5 0 8 -4 4 -9z m695 -3 c0 -4 -16 -7 -35 -5 -19 1 -35
6 -35 10 0 4 16 7 35 5 19 -1 35 -6 35 -10z m-670 -58 c0 -5 -4 -10 -10 -10
-5 0 -10 5 -10 10 0 6 5 10 10 10 6 0 10 -4 10 -10z m-40 -10 c0 -5 -5 -10
-11 -10 -5 0 -7 5 -4 10 3 6 8 10 11 10 2 0 4 -4 4 -10z m570 -171 c0 -6 -4
-7 -10 -4 -5 3 -10 11 -10 16 0 6 5 7 10 4 6 -3 10 -11 10 -16z m32 -1 c-7 -7
-12 -8 -12 -2 0 14 12 26 19 19 2 -3 -1 -11 -7 -17z m-1122 -60 c0 -15 -15 -8
-28 12 -12 19 -11 20 8 8 11 -7 20 -16 20 -20z m1050 -38 c0 -5 -5 -10 -11
-10 -5 0 -7 5 -4 10 3 6 8 10 11 10 2 0 4 -4 4 -10z m560 -9 c-9 -5 -83 -6
-170 -2 l-155 8 170 1 c103 1 164 -2 155 -7z m-1540 -16 c10 -13 9 -15 -8 -15
-15 0 -20 5 -16 15 4 8 7 15 9 15 1 0 8 -7 15 -15z m-148 -118 c36 -12 43 -19
43 -41 1 -14 -5 -28 -13 -31 -8 -3 -11 -12 -8 -20 5 -15 -3 -18 -34 -16 -10 0
-11 -1 -2 -5 6 -3 12 -10 12 -15 0 -5 -11 -4 -25 3 -13 6 -22 15 -18 21 4 6 1
7 -7 2 -8 -5 -11 -3 -8 5 2 7 -9 27 -24 44 -25 28 -26 31 -11 38 15 6 16 7 2
7 -19 1 -48 31 -30 31 6 0 11 5 11 10 0 6 -3 9 -7 9 -5 -1 -19 0 -33 1 -18 2
-20 4 -7 7 9 2 17 9 17 13 0 5 22 -4 50 -20 27 -16 68 -35 92 -43z m-127 -27
c3 -5 1 -10 -4 -10 -6 0 -11 5 -11 10 0 6 2 10 4 10 3 0 8 -4 11 -10z m244
-36 c2 -2 1 -10 -2 -19 -4 -10 -19 -15 -42 -15 -23 0 -34 4 -30 11 4 6 21 8
38 5 26 -5 28 -4 11 3 -35 15 -40 33 -7 25 15 -4 30 -8 32 -10z m-209 -4 c0
-5 -7 -10 -15 -10 -8 0 -15 5 -15 10 0 6 7 10 15 10 8 0 15 -4 15 -10z m63
-70 c10 0 17 -6 17 -12 1 -7 6 -3 13 10 7 12 16 19 20 16 4 -4 7 -2 7 5 0 10
10 11 38 7 20 -4 45 -7 55 -8 9 -1 17 -9 17 -18 0 -13 1 -13 10 0 8 12 10 11
10 -6 0 -22 25 -40 34 -25 6 9 65 5 74 -4 3 -3 -7 -5 -21 -5 -15 0 -27 -4 -27
-10 0 -5 5 -10 10 -10 6 0 10 -10 9 -22 0 -13 -3 -17 -6 -10 -3 7 -23 12 -51
12 -41 0 -44 -1 -28 -13 17 -13 18 -14 2 -20 -11 -4 -14 -12 -10 -19 6 -9 3
-9 -9 1 -9 7 -14 17 -11 22 2 5 -7 11 -21 15 -14 3 -32 16 -40 27 -8 11 -18
17 -22 13 -5 -5 -2 -11 5 -13 22 -8 12 -20 -13 -15 -15 2 -25 0 -25 -7 0 -7 5
-9 10 -6 6 3 10 1 10 -4 0 -13 -3 -13 -24 -5 -8 3 -12 12 -9 21 4 10 2 14 -4
10 -5 -3 -10 0 -10 8 0 17 13 20 22 5 8 -13 25 -13 25 -1 0 5 -15 12 -32 16
-60 12 -66 16 -77 45 -5 17 -15 30 -20 30 -6 0 -11 5 -11 11 0 5 15 -1 33 -15
19 -15 41 -26 50 -26z m-43 -90 c0 -5 -2 -10 -4 -10 -3 0 -8 5 -11 10 -3 6 -1
10 4 10 6 0 11 -4 11 -10z m49 -24 c-3 -3 -11 5 -18 17 -13 21 -12 21 5 5 10
-10 16 -20 13 -22z m127 10 c1 0 5 -11 8 -23 6 -17 3 -23 -8 -23 -21 0 -66 21
-66 32 0 12 10 10 26 -7 9 -8 21 -15 27 -15 6 0 1 7 -11 16 -29 20 -29 37 1
28 12 -3 23 -7 23 -8z m111 -16 c2 -17 0 -18 -18 -2 -24 21 -24 32 -1 25 10
-2 18 -13 19 -23z m-214 -36 c-4 -26 -2 -40 8 -48 24 -19 55 -60 39 -51 -27
15 -60 50 -60 63 0 6 -6 12 -12 12 -9 0 -9 3 1 9 8 5 11 16 8 24 -6 15 0 27
14 27 4 0 5 -16 2 -36z m177 26 c0 -5 -4 -10 -10 -10 -5 0 -10 5 -10 10 0 6 5
10 10 10 6 0 10 -4 10 -10z m-145 -20 c-3 -5 -11 -10 -16 -10 -6 0 -7 5 -4 10
3 6 11 10 16 10 6 0 7 -4 4 -10z m17 -28 c-12 -2 -20 -8 -17 -13 7 -10 -8 -12
-19 -2 -9 10 36 33 49 25 5 -4 0 -8 -13 -10z m76 -22 c10 -16 10 -20 -2 -20
-7 0 -16 9 -19 20 -3 11 -2 20 2 20 3 0 12 -9 19 -20z m452 12 c0 -14 -60
-225 -68 -236 -3 -6 -5 -19 -3 -30 1 -10 -3 -23 -11 -27 -10 -7 -10 -9 0 -9 6
0 12 -7 12 -16 0 -9 -5 -12 -12 -8 -7 4 -8 3 -4 -4 4 -7 4 -17 0 -23 -5 -8 -9
-8 -14 1 -5 8 -10 3 -14 -14 -3 -14 -11 -26 -17 -26 -6 0 -7 5 -3 11 4 7 7 25
6 41 0 15 3 26 8 23 5 -3 12 5 16 17 4 13 11 26 16 29 7 4 6 9 0 13 -6 4 -17
-1 -24 -9 -27 -33 -52 -55 -61 -55 -6 0 3 12 19 26 17 15 22 24 12 21 -26 -9
-30 8 -8 28 11 10 20 23 20 28 0 6 -13 -1 -28 -16 -15 -15 -36 -27 -45 -27
-21 0 -21 4 0 38 17 27 17 27 -2 10 -17 -14 -22 -14 -32 -2 -17 18 -16 34 4
56 11 12 16 32 15 54 -2 20 1 33 7 30 5 -3 7 -16 4 -27 -5 -16 -2 -20 8 -17 8
3 13 11 11 17 -1 7 2 9 8 6 6 -4 19 0 28 8 9 8 37 25 62 37 25 13 51 31 58 41
13 19 32 25 32 11z m-500 -17 c11 -13 10 -14 -4 -9 -9 3 -16 10 -16 15 0 13 6
11 20 -6z m34 -60 c17 -14 36 -23 43 -20 8 2 11 0 8 -5 -11 -18 -36 -10 -67
20 -36 36 -24 40 16 5z m-379 -103 c-7 -7 -55 39 -55 52 0 5 13 -3 30 -19 16
-16 28 -31 25 -33z m967 -238 c-3 -17 -7 -22 -12 -13 -9 13 -2 39 10 39 4 0 5
-12 2 -26z m588 -83 c-17 -34 -30 -67 -29 -74 4 -30 -3 -45 -21 -50 -11 -3
-20 -1 -20 4 0 5 7 9 15 9 8 0 15 4 15 10 0 5 -7 7 -15 3 -11 -4 -6 12 15 48
17 30 38 69 47 86 9 18 18 31 20 29 3 -2 -10 -32 -27 -65z m53 19 c-19 -22
-26 -21 -17 4 3 9 12 16 20 16 11 0 10 -4 -3 -20z m183 4 c-3 -9 -6 -18 -6
-20 0 -2 -8 -4 -17 -3 -11 0 -13 3 -5 6 6 2 12 11 12 19 0 8 5 14 11 14 6 0 8
-7 5 -16z m-56 -23 c-7 -13 -7 -21 -1 -21 6 0 8 -7 4 -16 -4 -10 -9 -12 -16
-5 -7 7 -6 20 3 41 7 17 15 29 17 26 3 -2 0 -14 -7 -25z m-106 -8 c-7 -16 -14
-38 -14 -51 0 -13 -4 -20 -10 -17 -5 3 -10 -1 -10 -9 0 -9 -4 -16 -10 -16 -16
0 -12 17 18 70 28 51 52 72 26 23z m72 0 c-10 -10 -19 5 -10 18 6 11 8 11 12
0 2 -7 1 -15 -2 -18z m-129 -45 c-3 -8 -6 -5 -6 6 -1 11 2 17 5 13 3 -3 4 -12
1 -19z m134 -40 c-12 -35 -41 -61 -58 -50 -5 4 -15 17 -22 29 -10 19 -9 22 4
17 8 -4 15 -10 15 -15 0 -20 19 -7 39 27 26 43 37 39 22 -8z m-41 6 c0 -16
-16 -19 -25 -4 -8 13 4 32 16 25 5 -4 9 -13 9 -21z m81 -10 c-11 -15 -21 -23
-21 -17 0 11 33 53 38 48 3 -2 -5 -16 -17 -31z m-861 -34 c0 -5 -4 -10 -10
-10 -5 0 -10 5 -10 10 0 6 5 10 10 10 6 0 10 -4 10 -10z m850 -10 c0 -5 -2
-10 -4 -10 -3 0 -8 5 -11 10 -3 6 -1 10 4 10 6 0 11 -4 11 -10z"/>
<path d="M1502 2583 c-13 -7 -31 -13 -38 -13 -8 0 -14 -4 -14 -10 0 -5 -4 -10
-9 -10 -18 0 -154 -90 -197 -130 -24 -23 -47 -52 -50 -65 -3 -14 -11 -25 -18
-25 -6 0 -2 -6 8 -12 15 -8 22 -7 31 6 7 9 18 16 24 16 7 0 10 4 6 9 -7 13 28
23 51 14 15 -5 11 -10 -22 -25 -21 -10 -30 -16 -19 -13 16 4 14 0 -8 -19 l-29
-23 30 -22 c17 -11 37 -21 46 -21 9 0 17 -4 17 -10 1 -5 2 -15 3 -22 0 -6 10
-12 21 -14 11 -2 25 -10 31 -18 6 -9 13 -13 17 -10 3 3 22 -3 44 -13 29 -14
50 -17 91 -12 56 7 122 34 122 49 0 6 3 9 8 9 25 -4 34 3 15 11 -15 6 -23 18
-23 33 0 25 22 52 33 40 4 -3 16 2 26 11 11 10 25 15 32 10 8 -5 11 -2 7 8 -5
12 0 14 20 10 l27 -5 -23 19 c-22 18 -22 21 -8 49 14 27 14 30 -4 47 -25 23
-8 47 27 40 13 -3 23 1 23 7 0 7 -4 9 -10 6 -6 -3 -7 1 -4 9 3 9 10 16 15 16
5 0 9 7 9 15 0 9 -6 12 -17 8 -9 -4 -14 -2 -10 3 3 5 -6 14 -19 21 -14 6 -24
7 -24 1 0 -5 -5 -6 -10 -3 -6 4 -8 11 -5 16 10 15 -17 20 -111 22 -55 2 -96
-2 -112 -10z m58 -173 c12 -8 12 -10 1 -10 -11 0 -10 -5 4 -20 10 -11 23 -17
29 -14 6 3 2 -2 -8 -10 -11 -9 -24 -16 -28 -16 -5 0 -3 -10 3 -22 11 -20 10
-21 -2 -11 -21 17 -156 11 -194 -9 -16 -9 -50 -19 -75 -22 l-45 -7 32 15 c18
8 57 40 86 70 29 30 64 56 78 59 44 8 104 7 119 -3z m108 -19 c3 -9 -4 -8 -27
3 -17 9 -31 18 -31 20 0 10 54 -12 58 -23z m-341 -7 c-3 -3 -12 -4 -19 -1 -8
3 -5 6 6 6 11 1 17 -2 13 -5z m217 -115 c14 -7 23 -16 20 -21 -3 -4 -10 -6
-15 -3 -5 4 -9 1 -9 -4 0 -14 -37 -14 -45 -1 -8 14 1 40 14 40 6 0 21 -5 35
-11z m-60 -87 c2 -4 -11 -6 -30 -4 -19 2 -34 6 -34 8 0 8 59 4 64 -4z"/>
<path d="M1750 2360 c0 -5 9 -10 21 -10 11 0 17 5 14 10 -3 6 -13 10 -21 10
-8 0 -14 -4 -14 -10z"/>
<path d="M1140 1889 c0 -5 5 -7 10 -4 6 3 10 8 10 11 0 2 -4 4 -10 4 -5 0 -10
-5 -10 -11z"/>
<path d="M1702 1870 c0 -14 2 -19 5 -12 2 6 2 18 0 25 -3 6 -5 1 -5 -13z"/>
<path d="M1110 1840 c8 -5 22 -9 30 -9 10 0 8 3 -5 9 -27 12 -43 12 -25 0z"/>
<path d="M1235 1570 c-3 -5 -2 -10 4 -10 5 0 13 5 16 10 3 6 2 10 -4 10 -5 0
-13 -4 -16 -10z"/>
<path d="M1325 1530 c-3 -5 -18 -6 -33 -4 -21 4 -24 2 -15 -7 8 -8 23 -9 50
-2 28 6 33 11 21 15 -10 4 -20 3 -23 -2z"/>
<path d="M1377 1463 c-7 -11 10 -40 18 -31 4 4 3 14 -3 24 -5 9 -12 12 -15 7z"/>
<path d="M2098 1863 c7 -3 16 -2 19 1 4 3 -2 6 -13 5 -11 0 -14 -3 -6 -6z"/>
<path d="M2061 1743 c-20 -22 -9 -24 18 -4 14 11 18 18 9 18 -8 0 -20 -7 -27
-14z"/>
<path d="M1490 1441 c0 -5 5 -13 10 -16 6 -3 10 -2 10 4 0 5 -4 13 -10 16 -5
3 -10 2 -10 -4z"/>
<path d="M1590 1320 c0 -5 5 -10 11 -10 5 0 7 5 4 10 -3 6 -8 10 -11 10 -2 0
-4 -4 -4 -10z"/>
<path d="M1625 1320 c3 -5 8 -10 11 -10 2 0 4 5 4 10 0 6 -5 10 -11 10 -5 0
-7 -4 -4 -10z"/>
<path d="M1620 1160 c0 -5 7 -10 16 -10 8 0 12 5 9 10 -3 6 -10 10 -16 10 -5
0 -9 -4 -9 -10z"/>
<path d="M1900 1155 c0 -8 -8 -15 -17 -15 -15 0 -16 -2 -3 -10 10 -6 16 -6 18
0 2 6 7 8 12 5 4 -3 6 4 3 15 -6 24 -13 26 -13 5z"/>
<path d="M1780 1128 c0 -14 30 -22 41 -11 7 7 2 12 -15 15 -14 3 -26 1 -26 -4z"/>
<path d="M1405 1006 c11 -8 24 -12 29 -8 5 3 1 9 -10 13 -31 12 -39 10 -19 -5z"/>
<path d="M1450 991 c0 -5 9 -13 20 -16 11 -3 20 -11 20 -16 0 -14 -32 -11 -44
6 -8 10 -15 12 -26 5 -13 -8 -12 -10 3 -10 9 0 17 -4 17 -10 0 -5 7 -10 15
-10 9 0 12 -6 9 -17 -4 -14 -2 -13 7 2 13 19 13 19 19 -4 5 -24 6 -24 22 10
l17 34 -29 8 c-17 4 -30 12 -30 17 0 6 -4 10 -10 10 -5 0 -10 -4 -10 -9z"/>
<path d="M1608 793 c7 -3 16 -2 19 1 4 3 -2 6 -13 5 -11 0 -14 -3 -6 -6z"/>
<path d="M1261 664 c0 -11 3 -14 6 -6 3 7 2 16 -1 19 -3 4 -6 -2 -5 -13z"/>
<path d="M1760 560 c0 -5 5 -10 11 -10 5 0 7 5 4 10 -3 6 -8 10 -11 10 -2 0
-4 -4 -4 -10z"/>
<path d="M1795 560 c3 -5 8 -10 11 -10 2 0 4 5 4 10 0 6 -5 10 -11 10 -5 0 -7
-4 -4 -10z"/>
<path d="M1673 265 c-6 -14 -7 -25 -2 -25 11 0 22 25 17 39 -1 6 -8 -1 -15
-14z"/>
<path d="M1652 218 c-14 -14 -16 -38 -3 -38 8 0 23 41 17 47 -1 1 -8 -3 -14
-9z"/>
<path d="M1793 190 c0 -25 2 -35 4 -22 2 12 2 32 0 45 -2 12 -4 2 -4 -23z"/>
<path d="M1681 204 c0 -11 3 -14 6 -6 3 7 2 16 -1 19 -3 4 -6 -2 -5 -13z"/>
<path d="M1676 164 c-3 -9 -6 -26 -6 -39 0 -13 -4 -27 -10 -30 -5 -3 -10 -16
-10 -28 0 -17 2 -19 9 -7 6 8 7 18 5 22 -3 4 -3 8 1 8 3 0 10 -10 14 -22 6
-17 9 -4 10 45 0 69 -2 79 -13 51z"/>
<path d="M1626 131 c-3 -21 -12 -41 -20 -44 -7 -3 -16 -19 -19 -36 -9 -45 -9
-46 12 -47 17 -1 19 2 10 18 -6 11 -8 22 -5 26 3 3 6 2 6 -3 0 -4 7 -2 15 5 8
7 13 15 11 19 -2 3 -1 25 4 49 4 23 4 45 0 47 -4 3 -10 -13 -14 -34z"/>
<path d="M1635 29 c-4 -6 -5 -12 -2 -15 2 -3 7 2 10 11 7 17 1 20 -8 4z"/>
<path d="M2756 21 c-3 -5 1 -11 9 -14 9 -4 12 -1 8 9 -6 16 -10 17 -17 5z"/>
<path d="M2823 16 c-9 -11 -7 -13 12 -13 16 0 22 4 18 13 -6 17 -15 17 -30 0z"/>
</g>
</svg>
